%TF.GenerationSoftware,KiCad,Pcbnew,8.0.0*%
%TF.CreationDate,2024-03-02T14:55:01-05:00*%
%TF.ProjectId,workshop,776f726b-7368-46f7-902e-6b696361645f,rev?*%
%TF.SameCoordinates,Original*%
%TF.FileFunction,Drillmap*%
%TF.FilePolarity,Positive*%
%FSLAX45Y45*%
G04 Gerber Fmt 4.5, Leading zero omitted, Abs format (unit mm)*
G04 Created by KiCad (PCBNEW 8.0.0) date 2024-03-02 14:55:01*
%MOMM*%
%LPD*%
G01*
G04 APERTURE LIST*
%ADD10C,0.100000*%
%ADD11C,0.200000*%
G04 APERTURE END LIST*
D10*
X19590000Y-8573000D02*
X19590000Y-12059000D01*
X19090000Y-12559000D02*
X14044000Y-12559000D01*
X13544000Y-12059000D02*
X13544000Y-8573000D01*
X14044000Y-8073000D02*
X19090000Y-8073000D01*
X19590000Y-12059000D02*
G75*
G02*
X19090000Y-12559000I-500000J0D01*
G01*
X14044000Y-12559000D02*
G75*
G02*
X13544000Y-12059000I0J500000D01*
G01*
X19090000Y-8073000D02*
G75*
G02*
X19590000Y-8573000I0J-500000D01*
G01*
X13544000Y-8573000D02*
G75*
G02*
X14044000Y-8073000I500000J0D01*
G01*
D11*
X13799777Y-12875484D02*
X13799777Y-12675484D01*
X13799777Y-12675484D02*
X13847396Y-12675484D01*
X13847396Y-12675484D02*
X13875967Y-12685008D01*
X13875967Y-12685008D02*
X13895015Y-12704055D01*
X13895015Y-12704055D02*
X13904539Y-12723103D01*
X13904539Y-12723103D02*
X13914062Y-12761198D01*
X13914062Y-12761198D02*
X13914062Y-12789769D01*
X13914062Y-12789769D02*
X13904539Y-12827865D01*
X13904539Y-12827865D02*
X13895015Y-12846912D01*
X13895015Y-12846912D02*
X13875967Y-12865960D01*
X13875967Y-12865960D02*
X13847396Y-12875484D01*
X13847396Y-12875484D02*
X13799777Y-12875484D01*
X13999777Y-12875484D02*
X13999777Y-12742150D01*
X13999777Y-12780246D02*
X14009301Y-12761198D01*
X14009301Y-12761198D02*
X14018824Y-12751674D01*
X14018824Y-12751674D02*
X14037872Y-12742150D01*
X14037872Y-12742150D02*
X14056920Y-12742150D01*
X14123586Y-12875484D02*
X14123586Y-12742150D01*
X14123586Y-12675484D02*
X14114062Y-12685008D01*
X14114062Y-12685008D02*
X14123586Y-12694531D01*
X14123586Y-12694531D02*
X14133110Y-12685008D01*
X14133110Y-12685008D02*
X14123586Y-12675484D01*
X14123586Y-12675484D02*
X14123586Y-12694531D01*
X14247396Y-12875484D02*
X14228348Y-12865960D01*
X14228348Y-12865960D02*
X14218824Y-12846912D01*
X14218824Y-12846912D02*
X14218824Y-12675484D01*
X14352158Y-12875484D02*
X14333110Y-12865960D01*
X14333110Y-12865960D02*
X14323586Y-12846912D01*
X14323586Y-12846912D02*
X14323586Y-12675484D01*
X14580729Y-12875484D02*
X14580729Y-12675484D01*
X14580729Y-12675484D02*
X14647396Y-12818341D01*
X14647396Y-12818341D02*
X14714062Y-12675484D01*
X14714062Y-12675484D02*
X14714062Y-12875484D01*
X14895015Y-12875484D02*
X14895015Y-12770722D01*
X14895015Y-12770722D02*
X14885491Y-12751674D01*
X14885491Y-12751674D02*
X14866443Y-12742150D01*
X14866443Y-12742150D02*
X14828348Y-12742150D01*
X14828348Y-12742150D02*
X14809301Y-12751674D01*
X14895015Y-12865960D02*
X14875967Y-12875484D01*
X14875967Y-12875484D02*
X14828348Y-12875484D01*
X14828348Y-12875484D02*
X14809301Y-12865960D01*
X14809301Y-12865960D02*
X14799777Y-12846912D01*
X14799777Y-12846912D02*
X14799777Y-12827865D01*
X14799777Y-12827865D02*
X14809301Y-12808817D01*
X14809301Y-12808817D02*
X14828348Y-12799293D01*
X14828348Y-12799293D02*
X14875967Y-12799293D01*
X14875967Y-12799293D02*
X14895015Y-12789769D01*
X14990253Y-12742150D02*
X14990253Y-12942150D01*
X14990253Y-12751674D02*
X15009301Y-12742150D01*
X15009301Y-12742150D02*
X15047396Y-12742150D01*
X15047396Y-12742150D02*
X15066443Y-12751674D01*
X15066443Y-12751674D02*
X15075967Y-12761198D01*
X15075967Y-12761198D02*
X15085491Y-12780246D01*
X15085491Y-12780246D02*
X15085491Y-12837388D01*
X15085491Y-12837388D02*
X15075967Y-12856436D01*
X15075967Y-12856436D02*
X15066443Y-12865960D01*
X15066443Y-12865960D02*
X15047396Y-12875484D01*
X15047396Y-12875484D02*
X15009301Y-12875484D01*
X15009301Y-12875484D02*
X14990253Y-12865960D01*
X15171205Y-12856436D02*
X15180729Y-12865960D01*
X15180729Y-12865960D02*
X15171205Y-12875484D01*
X15171205Y-12875484D02*
X15161682Y-12865960D01*
X15161682Y-12865960D02*
X15171205Y-12856436D01*
X15171205Y-12856436D02*
X15171205Y-12875484D01*
X15171205Y-12751674D02*
X15180729Y-12761198D01*
X15180729Y-12761198D02*
X15171205Y-12770722D01*
X15171205Y-12770722D02*
X15161682Y-12761198D01*
X15161682Y-12761198D02*
X15171205Y-12751674D01*
X15171205Y-12751674D02*
X15171205Y-12770722D01*
M02*
