%TF.GenerationSoftware,KiCad,Pcbnew,8.0.0*%
%TF.CreationDate,2024-03-02T14:55:01-05:00*%
%TF.ProjectId,workshop,776f726b-7368-46f7-902e-6b696361645f,rev?*%
%TF.SameCoordinates,Original*%
%TF.FileFunction,Drillmap*%
%TF.FilePolarity,Positive*%
%FSLAX45Y45*%
G04 Gerber Fmt 4.5, Leading zero omitted, Abs format (unit mm)*
G04 Created by KiCad (PCBNEW 8.0.0) date 2024-03-02 14:55:01*
%MOMM*%
%LPD*%
G01*
G04 APERTURE LIST*
%ADD10C,0.100000*%
%ADD11C,0.200000*%
%ADD12C,0.110000*%
G04 APERTURE END LIST*
D10*
X19590000Y-8573000D02*
X19590000Y-12059000D01*
X19090000Y-12559000D02*
X14044000Y-12559000D01*
X13544000Y-12059000D02*
X13544000Y-8573000D01*
X14044000Y-8073000D02*
X19090000Y-8073000D01*
X19590000Y-12059000D02*
G75*
G02*
X19090000Y-12559000I-500000J0D01*
G01*
X14044000Y-12559000D02*
G75*
G02*
X13544000Y-12059000I0J500000D01*
G01*
X19090000Y-8073000D02*
G75*
G02*
X19590000Y-8573000I0J-500000D01*
G01*
X13544000Y-8573000D02*
G75*
G02*
X14044000Y-8073000I500000J0D01*
G01*
D11*
D10*
X13947500Y-11310500D02*
X13992500Y-11355500D01*
X13992500Y-11310500D02*
X13947500Y-11355500D01*
X14775500Y-11308500D02*
X14820500Y-11353500D01*
X14820500Y-11308500D02*
X14775500Y-11353500D01*
X15306500Y-9772500D02*
X15351500Y-9817500D01*
X15351500Y-9772500D02*
X15306500Y-9817500D01*
X16106500Y-10891500D02*
X16151500Y-10936500D01*
X16151500Y-10891500D02*
X16106500Y-10936500D01*
X17958500Y-8964500D02*
X18003500Y-9009500D01*
X18003500Y-8964500D02*
X17958500Y-9009500D01*
X18117500Y-8718500D02*
X18162500Y-8763500D01*
X18162500Y-8718500D02*
X18117500Y-8763500D01*
X16020000Y-8215250D02*
G75*
G02*
X15960000Y-8215250I-30000J0D01*
G01*
X15960000Y-8215250D02*
G75*
G02*
X16020000Y-8215250I30000J0D01*
G01*
X16020000Y-8250250D02*
X16020000Y-8180250D01*
X15960000Y-8180250D02*
G75*
G02*
X16020000Y-8180250I30000J0D01*
G01*
X15960000Y-8180250D02*
X15960000Y-8250250D01*
X15960000Y-8250250D02*
G75*
G03*
X16020000Y-8250250I30000J0D01*
G01*
X16720000Y-8215250D02*
G75*
G02*
X16660000Y-8215250I-30000J0D01*
G01*
X16660000Y-8215250D02*
G75*
G02*
X16720000Y-8215250I30000J0D01*
G01*
X16660000Y-8180250D02*
X16660000Y-8250250D01*
X16720000Y-8250250D02*
G75*
G02*
X16660000Y-8250250I-30000J0D01*
G01*
X16720000Y-8250250D02*
X16720000Y-8180250D01*
X16720000Y-8180250D02*
G75*
G03*
X16660000Y-8180250I-30000J0D01*
G01*
X17280000Y-8170000D02*
X17280000Y-8250000D01*
X17240000Y-8210000D02*
X17320000Y-8210000D01*
X17280000Y-8420000D02*
X17280000Y-8500000D01*
X17240000Y-8460000D02*
X17320000Y-8460000D01*
X18308000Y-11420000D02*
X18308000Y-11500000D01*
X18268000Y-11460000D02*
X18348000Y-11460000D01*
X18308000Y-11990000D02*
X18308000Y-12070000D01*
X18268000Y-12030000D02*
X18348000Y-12030000D01*
X18309000Y-10840000D02*
X18309000Y-10920000D01*
X18269000Y-10880000D02*
X18349000Y-10880000D01*
X18310000Y-10320000D02*
X18310000Y-10400000D01*
X18270000Y-10360000D02*
X18350000Y-10360000D01*
X19070000Y-11420000D02*
X19070000Y-11500000D01*
X19030000Y-11460000D02*
X19110000Y-11460000D01*
X19070000Y-11990000D02*
X19070000Y-12070000D01*
X19030000Y-12030000D02*
X19110000Y-12030000D01*
X19071000Y-10840000D02*
X19071000Y-10920000D01*
X19031000Y-10880000D02*
X19111000Y-10880000D01*
X19072000Y-10320000D02*
X19072000Y-10400000D01*
X19032000Y-10360000D02*
X19112000Y-10360000D01*
X16120052Y-8515302D02*
X16120052Y-8455198D01*
X16059948Y-8455198D01*
X16059948Y-8515302D01*
X16120052Y-8515302D01*
X16620052Y-8515302D02*
X16620052Y-8455198D01*
X16559948Y-8455198D01*
X16559948Y-8515302D01*
X16620052Y-8515302D01*
X17433500Y-10575000D02*
X17478500Y-10530000D01*
X17433500Y-10485000D01*
X17388500Y-10530000D01*
X17433500Y-10575000D01*
X17444500Y-11247500D02*
X17489500Y-11202500D01*
X17444500Y-11157500D01*
X17399500Y-11202500D01*
X17444500Y-11247500D01*
X17687500Y-10575000D02*
X17732500Y-10530000D01*
X17687500Y-10485000D01*
X17642500Y-10530000D01*
X17687500Y-10575000D01*
X17698500Y-11247500D02*
X17743500Y-11202500D01*
X17698500Y-11157500D01*
X17653500Y-11202500D01*
X17698500Y-11247500D01*
X17842500Y-8253000D02*
X17942500Y-8353000D01*
X17942500Y-8253000D02*
X17842500Y-8353000D01*
X17942500Y-8303000D02*
G75*
G02*
X17842500Y-8303000I-50000J0D01*
G01*
X17842500Y-8303000D02*
G75*
G02*
X17942500Y-8303000I50000J0D01*
G01*
X18096500Y-8253000D02*
X18196500Y-8353000D01*
X18196500Y-8253000D02*
X18096500Y-8353000D01*
X18196500Y-8303000D02*
G75*
G02*
X18096500Y-8303000I-50000J0D01*
G01*
X18096500Y-8303000D02*
G75*
G02*
X18196500Y-8303000I50000J0D01*
G01*
D12*
X13965000Y-9805000D02*
X14075000Y-9915000D01*
X14075000Y-9805000D02*
X13965000Y-9915000D01*
X14020000Y-9805000D02*
X14020000Y-9915000D01*
X13965000Y-9860000D02*
X14075000Y-9860000D01*
X13965000Y-10255000D02*
X14075000Y-10365000D01*
X14075000Y-10255000D02*
X13965000Y-10365000D01*
X14020000Y-10255000D02*
X14020000Y-10365000D01*
X13965000Y-10310000D02*
X14075000Y-10310000D01*
X14615000Y-9805000D02*
X14725000Y-9915000D01*
X14725000Y-9805000D02*
X14615000Y-9915000D01*
X14670000Y-9805000D02*
X14670000Y-9915000D01*
X14615000Y-9860000D02*
X14725000Y-9860000D01*
X14615000Y-10255000D02*
X14725000Y-10365000D01*
X14725000Y-10255000D02*
X14615000Y-10365000D01*
X14670000Y-10255000D02*
X14670000Y-10365000D01*
X14615000Y-10310000D02*
X14725000Y-10310000D01*
D11*
X13799777Y-12875484D02*
X13799777Y-12675484D01*
X13799777Y-12675484D02*
X13847396Y-12675484D01*
X13847396Y-12675484D02*
X13875967Y-12685008D01*
X13875967Y-12685008D02*
X13895015Y-12704055D01*
X13895015Y-12704055D02*
X13904539Y-12723103D01*
X13904539Y-12723103D02*
X13914062Y-12761198D01*
X13914062Y-12761198D02*
X13914062Y-12789769D01*
X13914062Y-12789769D02*
X13904539Y-12827865D01*
X13904539Y-12827865D02*
X13895015Y-12846912D01*
X13895015Y-12846912D02*
X13875967Y-12865960D01*
X13875967Y-12865960D02*
X13847396Y-12875484D01*
X13847396Y-12875484D02*
X13799777Y-12875484D01*
X13999777Y-12875484D02*
X13999777Y-12742150D01*
X13999777Y-12780246D02*
X14009301Y-12761198D01*
X14009301Y-12761198D02*
X14018824Y-12751674D01*
X14018824Y-12751674D02*
X14037872Y-12742150D01*
X14037872Y-12742150D02*
X14056920Y-12742150D01*
X14123586Y-12875484D02*
X14123586Y-12742150D01*
X14123586Y-12675484D02*
X14114062Y-12685008D01*
X14114062Y-12685008D02*
X14123586Y-12694531D01*
X14123586Y-12694531D02*
X14133110Y-12685008D01*
X14133110Y-12685008D02*
X14123586Y-12675484D01*
X14123586Y-12675484D02*
X14123586Y-12694531D01*
X14247396Y-12875484D02*
X14228348Y-12865960D01*
X14228348Y-12865960D02*
X14218824Y-12846912D01*
X14218824Y-12846912D02*
X14218824Y-12675484D01*
X14352158Y-12875484D02*
X14333110Y-12865960D01*
X14333110Y-12865960D02*
X14323586Y-12846912D01*
X14323586Y-12846912D02*
X14323586Y-12675484D01*
X14580729Y-12875484D02*
X14580729Y-12675484D01*
X14580729Y-12675484D02*
X14647396Y-12818341D01*
X14647396Y-12818341D02*
X14714062Y-12675484D01*
X14714062Y-12675484D02*
X14714062Y-12875484D01*
X14895015Y-12875484D02*
X14895015Y-12770722D01*
X14895015Y-12770722D02*
X14885491Y-12751674D01*
X14885491Y-12751674D02*
X14866443Y-12742150D01*
X14866443Y-12742150D02*
X14828348Y-12742150D01*
X14828348Y-12742150D02*
X14809301Y-12751674D01*
X14895015Y-12865960D02*
X14875967Y-12875484D01*
X14875967Y-12875484D02*
X14828348Y-12875484D01*
X14828348Y-12875484D02*
X14809301Y-12865960D01*
X14809301Y-12865960D02*
X14799777Y-12846912D01*
X14799777Y-12846912D02*
X14799777Y-12827865D01*
X14799777Y-12827865D02*
X14809301Y-12808817D01*
X14809301Y-12808817D02*
X14828348Y-12799293D01*
X14828348Y-12799293D02*
X14875967Y-12799293D01*
X14875967Y-12799293D02*
X14895015Y-12789769D01*
X14990253Y-12742150D02*
X14990253Y-12942150D01*
X14990253Y-12751674D02*
X15009301Y-12742150D01*
X15009301Y-12742150D02*
X15047396Y-12742150D01*
X15047396Y-12742150D02*
X15066443Y-12751674D01*
X15066443Y-12751674D02*
X15075967Y-12761198D01*
X15075967Y-12761198D02*
X15085491Y-12780246D01*
X15085491Y-12780246D02*
X15085491Y-12837388D01*
X15085491Y-12837388D02*
X15075967Y-12856436D01*
X15075967Y-12856436D02*
X15066443Y-12865960D01*
X15066443Y-12865960D02*
X15047396Y-12875484D01*
X15047396Y-12875484D02*
X15009301Y-12875484D01*
X15009301Y-12875484D02*
X14990253Y-12865960D01*
X15171205Y-12856436D02*
X15180729Y-12865960D01*
X15180729Y-12865960D02*
X15171205Y-12875484D01*
X15171205Y-12875484D02*
X15161682Y-12865960D01*
X15161682Y-12865960D02*
X15171205Y-12856436D01*
X15171205Y-12856436D02*
X15171205Y-12875484D01*
X15171205Y-12751674D02*
X15180729Y-12761198D01*
X15180729Y-12761198D02*
X15171205Y-12770722D01*
X15171205Y-12770722D02*
X15161682Y-12761198D01*
X15161682Y-12761198D02*
X15171205Y-12751674D01*
X15171205Y-12751674D02*
X15171205Y-12770722D01*
D10*
X13494000Y-13181500D02*
X13539000Y-13226500D01*
X13539000Y-13181500D02*
X13494000Y-13226500D01*
D11*
X13837872Y-13095484D02*
X13856920Y-13095484D01*
X13856920Y-13095484D02*
X13875967Y-13105008D01*
X13875967Y-13105008D02*
X13885491Y-13114531D01*
X13885491Y-13114531D02*
X13895015Y-13133579D01*
X13895015Y-13133579D02*
X13904539Y-13171674D01*
X13904539Y-13171674D02*
X13904539Y-13219293D01*
X13904539Y-13219293D02*
X13895015Y-13257388D01*
X13895015Y-13257388D02*
X13885491Y-13276436D01*
X13885491Y-13276436D02*
X13875967Y-13285960D01*
X13875967Y-13285960D02*
X13856920Y-13295484D01*
X13856920Y-13295484D02*
X13837872Y-13295484D01*
X13837872Y-13295484D02*
X13818824Y-13285960D01*
X13818824Y-13285960D02*
X13809301Y-13276436D01*
X13809301Y-13276436D02*
X13799777Y-13257388D01*
X13799777Y-13257388D02*
X13790253Y-13219293D01*
X13790253Y-13219293D02*
X13790253Y-13171674D01*
X13790253Y-13171674D02*
X13799777Y-13133579D01*
X13799777Y-13133579D02*
X13809301Y-13114531D01*
X13809301Y-13114531D02*
X13818824Y-13105008D01*
X13818824Y-13105008D02*
X13837872Y-13095484D01*
X13990253Y-13276436D02*
X13999777Y-13285960D01*
X13999777Y-13285960D02*
X13990253Y-13295484D01*
X13990253Y-13295484D02*
X13980729Y-13285960D01*
X13980729Y-13285960D02*
X13990253Y-13276436D01*
X13990253Y-13276436D02*
X13990253Y-13295484D01*
X14171205Y-13162150D02*
X14171205Y-13295484D01*
X14123586Y-13085960D02*
X14075967Y-13228817D01*
X14075967Y-13228817D02*
X14199777Y-13228817D01*
X14371205Y-13095484D02*
X14275967Y-13095484D01*
X14275967Y-13095484D02*
X14266443Y-13190722D01*
X14266443Y-13190722D02*
X14275967Y-13181198D01*
X14275967Y-13181198D02*
X14295015Y-13171674D01*
X14295015Y-13171674D02*
X14342634Y-13171674D01*
X14342634Y-13171674D02*
X14361682Y-13181198D01*
X14361682Y-13181198D02*
X14371205Y-13190722D01*
X14371205Y-13190722D02*
X14380729Y-13209769D01*
X14380729Y-13209769D02*
X14380729Y-13257388D01*
X14380729Y-13257388D02*
X14371205Y-13276436D01*
X14371205Y-13276436D02*
X14361682Y-13285960D01*
X14361682Y-13285960D02*
X14342634Y-13295484D01*
X14342634Y-13295484D02*
X14295015Y-13295484D01*
X14295015Y-13295484D02*
X14275967Y-13285960D01*
X14275967Y-13285960D02*
X14266443Y-13276436D01*
X14504539Y-13095484D02*
X14523586Y-13095484D01*
X14523586Y-13095484D02*
X14542634Y-13105008D01*
X14542634Y-13105008D02*
X14552158Y-13114531D01*
X14552158Y-13114531D02*
X14561682Y-13133579D01*
X14561682Y-13133579D02*
X14571205Y-13171674D01*
X14571205Y-13171674D02*
X14571205Y-13219293D01*
X14571205Y-13219293D02*
X14561682Y-13257388D01*
X14561682Y-13257388D02*
X14552158Y-13276436D01*
X14552158Y-13276436D02*
X14542634Y-13285960D01*
X14542634Y-13285960D02*
X14523586Y-13295484D01*
X14523586Y-13295484D02*
X14504539Y-13295484D01*
X14504539Y-13295484D02*
X14485491Y-13285960D01*
X14485491Y-13285960D02*
X14475967Y-13276436D01*
X14475967Y-13276436D02*
X14466443Y-13257388D01*
X14466443Y-13257388D02*
X14456920Y-13219293D01*
X14456920Y-13219293D02*
X14456920Y-13171674D01*
X14456920Y-13171674D02*
X14466443Y-13133579D01*
X14466443Y-13133579D02*
X14475967Y-13114531D01*
X14475967Y-13114531D02*
X14485491Y-13105008D01*
X14485491Y-13105008D02*
X14504539Y-13095484D01*
X14656920Y-13295484D02*
X14656920Y-13162150D01*
X14656920Y-13181198D02*
X14666443Y-13171674D01*
X14666443Y-13171674D02*
X14685491Y-13162150D01*
X14685491Y-13162150D02*
X14714063Y-13162150D01*
X14714063Y-13162150D02*
X14733110Y-13171674D01*
X14733110Y-13171674D02*
X14742634Y-13190722D01*
X14742634Y-13190722D02*
X14742634Y-13295484D01*
X14742634Y-13190722D02*
X14752158Y-13171674D01*
X14752158Y-13171674D02*
X14771205Y-13162150D01*
X14771205Y-13162150D02*
X14799777Y-13162150D01*
X14799777Y-13162150D02*
X14818824Y-13171674D01*
X14818824Y-13171674D02*
X14828348Y-13190722D01*
X14828348Y-13190722D02*
X14828348Y-13295484D01*
X14923586Y-13295484D02*
X14923586Y-13162150D01*
X14923586Y-13181198D02*
X14933110Y-13171674D01*
X14933110Y-13171674D02*
X14952158Y-13162150D01*
X14952158Y-13162150D02*
X14980729Y-13162150D01*
X14980729Y-13162150D02*
X14999777Y-13171674D01*
X14999777Y-13171674D02*
X15009301Y-13190722D01*
X15009301Y-13190722D02*
X15009301Y-13295484D01*
X15009301Y-13190722D02*
X15018824Y-13171674D01*
X15018824Y-13171674D02*
X15037872Y-13162150D01*
X15037872Y-13162150D02*
X15066443Y-13162150D01*
X15066443Y-13162150D02*
X15085491Y-13171674D01*
X15085491Y-13171674D02*
X15095015Y-13190722D01*
X15095015Y-13190722D02*
X15095015Y-13295484D01*
X15485491Y-13085960D02*
X15314063Y-13343103D01*
X15742634Y-13095484D02*
X15761682Y-13095484D01*
X15761682Y-13095484D02*
X15780729Y-13105008D01*
X15780729Y-13105008D02*
X15790253Y-13114531D01*
X15790253Y-13114531D02*
X15799777Y-13133579D01*
X15799777Y-13133579D02*
X15809301Y-13171674D01*
X15809301Y-13171674D02*
X15809301Y-13219293D01*
X15809301Y-13219293D02*
X15799777Y-13257388D01*
X15799777Y-13257388D02*
X15790253Y-13276436D01*
X15790253Y-13276436D02*
X15780729Y-13285960D01*
X15780729Y-13285960D02*
X15761682Y-13295484D01*
X15761682Y-13295484D02*
X15742634Y-13295484D01*
X15742634Y-13295484D02*
X15723586Y-13285960D01*
X15723586Y-13285960D02*
X15714063Y-13276436D01*
X15714063Y-13276436D02*
X15704539Y-13257388D01*
X15704539Y-13257388D02*
X15695015Y-13219293D01*
X15695015Y-13219293D02*
X15695015Y-13171674D01*
X15695015Y-13171674D02*
X15704539Y-13133579D01*
X15704539Y-13133579D02*
X15714063Y-13114531D01*
X15714063Y-13114531D02*
X15723586Y-13105008D01*
X15723586Y-13105008D02*
X15742634Y-13095484D01*
X15895015Y-13276436D02*
X15904539Y-13285960D01*
X15904539Y-13285960D02*
X15895015Y-13295484D01*
X15895015Y-13295484D02*
X15885491Y-13285960D01*
X15885491Y-13285960D02*
X15895015Y-13276436D01*
X15895015Y-13276436D02*
X15895015Y-13295484D01*
X16028348Y-13095484D02*
X16047396Y-13095484D01*
X16047396Y-13095484D02*
X16066444Y-13105008D01*
X16066444Y-13105008D02*
X16075967Y-13114531D01*
X16075967Y-13114531D02*
X16085491Y-13133579D01*
X16085491Y-13133579D02*
X16095015Y-13171674D01*
X16095015Y-13171674D02*
X16095015Y-13219293D01*
X16095015Y-13219293D02*
X16085491Y-13257388D01*
X16085491Y-13257388D02*
X16075967Y-13276436D01*
X16075967Y-13276436D02*
X16066444Y-13285960D01*
X16066444Y-13285960D02*
X16047396Y-13295484D01*
X16047396Y-13295484D02*
X16028348Y-13295484D01*
X16028348Y-13295484D02*
X16009301Y-13285960D01*
X16009301Y-13285960D02*
X15999777Y-13276436D01*
X15999777Y-13276436D02*
X15990253Y-13257388D01*
X15990253Y-13257388D02*
X15980729Y-13219293D01*
X15980729Y-13219293D02*
X15980729Y-13171674D01*
X15980729Y-13171674D02*
X15990253Y-13133579D01*
X15990253Y-13133579D02*
X15999777Y-13114531D01*
X15999777Y-13114531D02*
X16009301Y-13105008D01*
X16009301Y-13105008D02*
X16028348Y-13095484D01*
X16285491Y-13295484D02*
X16171206Y-13295484D01*
X16228348Y-13295484D02*
X16228348Y-13095484D01*
X16228348Y-13095484D02*
X16209301Y-13124055D01*
X16209301Y-13124055D02*
X16190253Y-13143103D01*
X16190253Y-13143103D02*
X16171206Y-13152627D01*
X16352158Y-13095484D02*
X16485491Y-13095484D01*
X16485491Y-13095484D02*
X16399777Y-13295484D01*
X16542634Y-13095484D02*
X16675967Y-13095484D01*
X16675967Y-13095484D02*
X16590253Y-13295484D01*
X16742634Y-13095484D02*
X16742634Y-13133579D01*
X16818825Y-13095484D02*
X16818825Y-13133579D01*
X17114063Y-13371674D02*
X17104539Y-13362150D01*
X17104539Y-13362150D02*
X17085491Y-13333579D01*
X17085491Y-13333579D02*
X17075968Y-13314531D01*
X17075968Y-13314531D02*
X17066444Y-13285960D01*
X17066444Y-13285960D02*
X17056920Y-13238341D01*
X17056920Y-13238341D02*
X17056920Y-13200246D01*
X17056920Y-13200246D02*
X17066444Y-13152627D01*
X17066444Y-13152627D02*
X17075968Y-13124055D01*
X17075968Y-13124055D02*
X17085491Y-13105008D01*
X17085491Y-13105008D02*
X17104539Y-13076436D01*
X17104539Y-13076436D02*
X17114063Y-13066912D01*
X17275968Y-13095484D02*
X17237872Y-13095484D01*
X17237872Y-13095484D02*
X17218825Y-13105008D01*
X17218825Y-13105008D02*
X17209301Y-13114531D01*
X17209301Y-13114531D02*
X17190253Y-13143103D01*
X17190253Y-13143103D02*
X17180730Y-13181198D01*
X17180730Y-13181198D02*
X17180730Y-13257388D01*
X17180730Y-13257388D02*
X17190253Y-13276436D01*
X17190253Y-13276436D02*
X17199777Y-13285960D01*
X17199777Y-13285960D02*
X17218825Y-13295484D01*
X17218825Y-13295484D02*
X17256920Y-13295484D01*
X17256920Y-13295484D02*
X17275968Y-13285960D01*
X17275968Y-13285960D02*
X17285491Y-13276436D01*
X17285491Y-13276436D02*
X17295015Y-13257388D01*
X17295015Y-13257388D02*
X17295015Y-13209769D01*
X17295015Y-13209769D02*
X17285491Y-13190722D01*
X17285491Y-13190722D02*
X17275968Y-13181198D01*
X17275968Y-13181198D02*
X17256920Y-13171674D01*
X17256920Y-13171674D02*
X17218825Y-13171674D01*
X17218825Y-13171674D02*
X17199777Y-13181198D01*
X17199777Y-13181198D02*
X17190253Y-13190722D01*
X17190253Y-13190722D02*
X17180730Y-13209769D01*
X17533111Y-13295484D02*
X17533111Y-13095484D01*
X17618825Y-13295484D02*
X17618825Y-13190722D01*
X17618825Y-13190722D02*
X17609301Y-13171674D01*
X17609301Y-13171674D02*
X17590253Y-13162150D01*
X17590253Y-13162150D02*
X17561682Y-13162150D01*
X17561682Y-13162150D02*
X17542634Y-13171674D01*
X17542634Y-13171674D02*
X17533111Y-13181198D01*
X17742634Y-13295484D02*
X17723587Y-13285960D01*
X17723587Y-13285960D02*
X17714063Y-13276436D01*
X17714063Y-13276436D02*
X17704539Y-13257388D01*
X17704539Y-13257388D02*
X17704539Y-13200246D01*
X17704539Y-13200246D02*
X17714063Y-13181198D01*
X17714063Y-13181198D02*
X17723587Y-13171674D01*
X17723587Y-13171674D02*
X17742634Y-13162150D01*
X17742634Y-13162150D02*
X17771206Y-13162150D01*
X17771206Y-13162150D02*
X17790253Y-13171674D01*
X17790253Y-13171674D02*
X17799777Y-13181198D01*
X17799777Y-13181198D02*
X17809301Y-13200246D01*
X17809301Y-13200246D02*
X17809301Y-13257388D01*
X17809301Y-13257388D02*
X17799777Y-13276436D01*
X17799777Y-13276436D02*
X17790253Y-13285960D01*
X17790253Y-13285960D02*
X17771206Y-13295484D01*
X17771206Y-13295484D02*
X17742634Y-13295484D01*
X17923587Y-13295484D02*
X17904539Y-13285960D01*
X17904539Y-13285960D02*
X17895015Y-13266912D01*
X17895015Y-13266912D02*
X17895015Y-13095484D01*
X18075968Y-13285960D02*
X18056920Y-13295484D01*
X18056920Y-13295484D02*
X18018825Y-13295484D01*
X18018825Y-13295484D02*
X17999777Y-13285960D01*
X17999777Y-13285960D02*
X17990253Y-13266912D01*
X17990253Y-13266912D02*
X17990253Y-13190722D01*
X17990253Y-13190722D02*
X17999777Y-13171674D01*
X17999777Y-13171674D02*
X18018825Y-13162150D01*
X18018825Y-13162150D02*
X18056920Y-13162150D01*
X18056920Y-13162150D02*
X18075968Y-13171674D01*
X18075968Y-13171674D02*
X18085492Y-13190722D01*
X18085492Y-13190722D02*
X18085492Y-13209769D01*
X18085492Y-13209769D02*
X17990253Y-13228817D01*
X18161682Y-13285960D02*
X18180730Y-13295484D01*
X18180730Y-13295484D02*
X18218825Y-13295484D01*
X18218825Y-13295484D02*
X18237873Y-13285960D01*
X18237873Y-13285960D02*
X18247396Y-13266912D01*
X18247396Y-13266912D02*
X18247396Y-13257388D01*
X18247396Y-13257388D02*
X18237873Y-13238341D01*
X18237873Y-13238341D02*
X18218825Y-13228817D01*
X18218825Y-13228817D02*
X18190253Y-13228817D01*
X18190253Y-13228817D02*
X18171206Y-13219293D01*
X18171206Y-13219293D02*
X18161682Y-13200246D01*
X18161682Y-13200246D02*
X18161682Y-13190722D01*
X18161682Y-13190722D02*
X18171206Y-13171674D01*
X18171206Y-13171674D02*
X18190253Y-13162150D01*
X18190253Y-13162150D02*
X18218825Y-13162150D01*
X18218825Y-13162150D02*
X18237873Y-13171674D01*
X18314063Y-13371674D02*
X18323587Y-13362150D01*
X18323587Y-13362150D02*
X18342634Y-13333579D01*
X18342634Y-13333579D02*
X18352158Y-13314531D01*
X18352158Y-13314531D02*
X18361682Y-13285960D01*
X18361682Y-13285960D02*
X18371206Y-13238341D01*
X18371206Y-13238341D02*
X18371206Y-13200246D01*
X18371206Y-13200246D02*
X18361682Y-13152627D01*
X18361682Y-13152627D02*
X18352158Y-13124055D01*
X18352158Y-13124055D02*
X18342634Y-13105008D01*
X18342634Y-13105008D02*
X18323587Y-13076436D01*
X18323587Y-13076436D02*
X18314063Y-13066912D01*
D10*
X13539000Y-13468000D02*
G75*
G02*
X13479000Y-13468000I-30000J0D01*
G01*
X13479000Y-13468000D02*
G75*
G02*
X13539000Y-13468000I30000J0D01*
G01*
D11*
X13837872Y-13359484D02*
X13856920Y-13359484D01*
X13856920Y-13359484D02*
X13875967Y-13369008D01*
X13875967Y-13369008D02*
X13885491Y-13378531D01*
X13885491Y-13378531D02*
X13895015Y-13397579D01*
X13895015Y-13397579D02*
X13904539Y-13435674D01*
X13904539Y-13435674D02*
X13904539Y-13483293D01*
X13904539Y-13483293D02*
X13895015Y-13521388D01*
X13895015Y-13521388D02*
X13885491Y-13540436D01*
X13885491Y-13540436D02*
X13875967Y-13549960D01*
X13875967Y-13549960D02*
X13856920Y-13559484D01*
X13856920Y-13559484D02*
X13837872Y-13559484D01*
X13837872Y-13559484D02*
X13818824Y-13549960D01*
X13818824Y-13549960D02*
X13809301Y-13540436D01*
X13809301Y-13540436D02*
X13799777Y-13521388D01*
X13799777Y-13521388D02*
X13790253Y-13483293D01*
X13790253Y-13483293D02*
X13790253Y-13435674D01*
X13790253Y-13435674D02*
X13799777Y-13397579D01*
X13799777Y-13397579D02*
X13809301Y-13378531D01*
X13809301Y-13378531D02*
X13818824Y-13369008D01*
X13818824Y-13369008D02*
X13837872Y-13359484D01*
X13990253Y-13540436D02*
X13999777Y-13549960D01*
X13999777Y-13549960D02*
X13990253Y-13559484D01*
X13990253Y-13559484D02*
X13980729Y-13549960D01*
X13980729Y-13549960D02*
X13990253Y-13540436D01*
X13990253Y-13540436D02*
X13990253Y-13559484D01*
X14171205Y-13359484D02*
X14133110Y-13359484D01*
X14133110Y-13359484D02*
X14114062Y-13369008D01*
X14114062Y-13369008D02*
X14104539Y-13378531D01*
X14104539Y-13378531D02*
X14085491Y-13407103D01*
X14085491Y-13407103D02*
X14075967Y-13445198D01*
X14075967Y-13445198D02*
X14075967Y-13521388D01*
X14075967Y-13521388D02*
X14085491Y-13540436D01*
X14085491Y-13540436D02*
X14095015Y-13549960D01*
X14095015Y-13549960D02*
X14114062Y-13559484D01*
X14114062Y-13559484D02*
X14152158Y-13559484D01*
X14152158Y-13559484D02*
X14171205Y-13549960D01*
X14171205Y-13549960D02*
X14180729Y-13540436D01*
X14180729Y-13540436D02*
X14190253Y-13521388D01*
X14190253Y-13521388D02*
X14190253Y-13473769D01*
X14190253Y-13473769D02*
X14180729Y-13454722D01*
X14180729Y-13454722D02*
X14171205Y-13445198D01*
X14171205Y-13445198D02*
X14152158Y-13435674D01*
X14152158Y-13435674D02*
X14114062Y-13435674D01*
X14114062Y-13435674D02*
X14095015Y-13445198D01*
X14095015Y-13445198D02*
X14085491Y-13454722D01*
X14085491Y-13454722D02*
X14075967Y-13473769D01*
X14314062Y-13359484D02*
X14333110Y-13359484D01*
X14333110Y-13359484D02*
X14352158Y-13369008D01*
X14352158Y-13369008D02*
X14361682Y-13378531D01*
X14361682Y-13378531D02*
X14371205Y-13397579D01*
X14371205Y-13397579D02*
X14380729Y-13435674D01*
X14380729Y-13435674D02*
X14380729Y-13483293D01*
X14380729Y-13483293D02*
X14371205Y-13521388D01*
X14371205Y-13521388D02*
X14361682Y-13540436D01*
X14361682Y-13540436D02*
X14352158Y-13549960D01*
X14352158Y-13549960D02*
X14333110Y-13559484D01*
X14333110Y-13559484D02*
X14314062Y-13559484D01*
X14314062Y-13559484D02*
X14295015Y-13549960D01*
X14295015Y-13549960D02*
X14285491Y-13540436D01*
X14285491Y-13540436D02*
X14275967Y-13521388D01*
X14275967Y-13521388D02*
X14266443Y-13483293D01*
X14266443Y-13483293D02*
X14266443Y-13435674D01*
X14266443Y-13435674D02*
X14275967Y-13397579D01*
X14275967Y-13397579D02*
X14285491Y-13378531D01*
X14285491Y-13378531D02*
X14295015Y-13369008D01*
X14295015Y-13369008D02*
X14314062Y-13359484D01*
X14504539Y-13359484D02*
X14523586Y-13359484D01*
X14523586Y-13359484D02*
X14542634Y-13369008D01*
X14542634Y-13369008D02*
X14552158Y-13378531D01*
X14552158Y-13378531D02*
X14561682Y-13397579D01*
X14561682Y-13397579D02*
X14571205Y-13435674D01*
X14571205Y-13435674D02*
X14571205Y-13483293D01*
X14571205Y-13483293D02*
X14561682Y-13521388D01*
X14561682Y-13521388D02*
X14552158Y-13540436D01*
X14552158Y-13540436D02*
X14542634Y-13549960D01*
X14542634Y-13549960D02*
X14523586Y-13559484D01*
X14523586Y-13559484D02*
X14504539Y-13559484D01*
X14504539Y-13559484D02*
X14485491Y-13549960D01*
X14485491Y-13549960D02*
X14475967Y-13540436D01*
X14475967Y-13540436D02*
X14466443Y-13521388D01*
X14466443Y-13521388D02*
X14456920Y-13483293D01*
X14456920Y-13483293D02*
X14456920Y-13435674D01*
X14456920Y-13435674D02*
X14466443Y-13397579D01*
X14466443Y-13397579D02*
X14475967Y-13378531D01*
X14475967Y-13378531D02*
X14485491Y-13369008D01*
X14485491Y-13369008D02*
X14504539Y-13359484D01*
X14656920Y-13559484D02*
X14656920Y-13426150D01*
X14656920Y-13445198D02*
X14666443Y-13435674D01*
X14666443Y-13435674D02*
X14685491Y-13426150D01*
X14685491Y-13426150D02*
X14714063Y-13426150D01*
X14714063Y-13426150D02*
X14733110Y-13435674D01*
X14733110Y-13435674D02*
X14742634Y-13454722D01*
X14742634Y-13454722D02*
X14742634Y-13559484D01*
X14742634Y-13454722D02*
X14752158Y-13435674D01*
X14752158Y-13435674D02*
X14771205Y-13426150D01*
X14771205Y-13426150D02*
X14799777Y-13426150D01*
X14799777Y-13426150D02*
X14818824Y-13435674D01*
X14818824Y-13435674D02*
X14828348Y-13454722D01*
X14828348Y-13454722D02*
X14828348Y-13559484D01*
X14923586Y-13559484D02*
X14923586Y-13426150D01*
X14923586Y-13445198D02*
X14933110Y-13435674D01*
X14933110Y-13435674D02*
X14952158Y-13426150D01*
X14952158Y-13426150D02*
X14980729Y-13426150D01*
X14980729Y-13426150D02*
X14999777Y-13435674D01*
X14999777Y-13435674D02*
X15009301Y-13454722D01*
X15009301Y-13454722D02*
X15009301Y-13559484D01*
X15009301Y-13454722D02*
X15018824Y-13435674D01*
X15018824Y-13435674D02*
X15037872Y-13426150D01*
X15037872Y-13426150D02*
X15066443Y-13426150D01*
X15066443Y-13426150D02*
X15085491Y-13435674D01*
X15085491Y-13435674D02*
X15095015Y-13454722D01*
X15095015Y-13454722D02*
X15095015Y-13559484D01*
X15485491Y-13349960D02*
X15314063Y-13607103D01*
X15742634Y-13359484D02*
X15761682Y-13359484D01*
X15761682Y-13359484D02*
X15780729Y-13369008D01*
X15780729Y-13369008D02*
X15790253Y-13378531D01*
X15790253Y-13378531D02*
X15799777Y-13397579D01*
X15799777Y-13397579D02*
X15809301Y-13435674D01*
X15809301Y-13435674D02*
X15809301Y-13483293D01*
X15809301Y-13483293D02*
X15799777Y-13521388D01*
X15799777Y-13521388D02*
X15790253Y-13540436D01*
X15790253Y-13540436D02*
X15780729Y-13549960D01*
X15780729Y-13549960D02*
X15761682Y-13559484D01*
X15761682Y-13559484D02*
X15742634Y-13559484D01*
X15742634Y-13559484D02*
X15723586Y-13549960D01*
X15723586Y-13549960D02*
X15714063Y-13540436D01*
X15714063Y-13540436D02*
X15704539Y-13521388D01*
X15704539Y-13521388D02*
X15695015Y-13483293D01*
X15695015Y-13483293D02*
X15695015Y-13435674D01*
X15695015Y-13435674D02*
X15704539Y-13397579D01*
X15704539Y-13397579D02*
X15714063Y-13378531D01*
X15714063Y-13378531D02*
X15723586Y-13369008D01*
X15723586Y-13369008D02*
X15742634Y-13359484D01*
X15895015Y-13540436D02*
X15904539Y-13549960D01*
X15904539Y-13549960D02*
X15895015Y-13559484D01*
X15895015Y-13559484D02*
X15885491Y-13549960D01*
X15885491Y-13549960D02*
X15895015Y-13540436D01*
X15895015Y-13540436D02*
X15895015Y-13559484D01*
X16028348Y-13359484D02*
X16047396Y-13359484D01*
X16047396Y-13359484D02*
X16066444Y-13369008D01*
X16066444Y-13369008D02*
X16075967Y-13378531D01*
X16075967Y-13378531D02*
X16085491Y-13397579D01*
X16085491Y-13397579D02*
X16095015Y-13435674D01*
X16095015Y-13435674D02*
X16095015Y-13483293D01*
X16095015Y-13483293D02*
X16085491Y-13521388D01*
X16085491Y-13521388D02*
X16075967Y-13540436D01*
X16075967Y-13540436D02*
X16066444Y-13549960D01*
X16066444Y-13549960D02*
X16047396Y-13559484D01*
X16047396Y-13559484D02*
X16028348Y-13559484D01*
X16028348Y-13559484D02*
X16009301Y-13549960D01*
X16009301Y-13549960D02*
X15999777Y-13540436D01*
X15999777Y-13540436D02*
X15990253Y-13521388D01*
X15990253Y-13521388D02*
X15980729Y-13483293D01*
X15980729Y-13483293D02*
X15980729Y-13435674D01*
X15980729Y-13435674D02*
X15990253Y-13397579D01*
X15990253Y-13397579D02*
X15999777Y-13378531D01*
X15999777Y-13378531D02*
X16009301Y-13369008D01*
X16009301Y-13369008D02*
X16028348Y-13359484D01*
X16171206Y-13378531D02*
X16180729Y-13369008D01*
X16180729Y-13369008D02*
X16199777Y-13359484D01*
X16199777Y-13359484D02*
X16247396Y-13359484D01*
X16247396Y-13359484D02*
X16266444Y-13369008D01*
X16266444Y-13369008D02*
X16275967Y-13378531D01*
X16275967Y-13378531D02*
X16285491Y-13397579D01*
X16285491Y-13397579D02*
X16285491Y-13416627D01*
X16285491Y-13416627D02*
X16275967Y-13445198D01*
X16275967Y-13445198D02*
X16161682Y-13559484D01*
X16161682Y-13559484D02*
X16285491Y-13559484D01*
X16352158Y-13359484D02*
X16475967Y-13359484D01*
X16475967Y-13359484D02*
X16409301Y-13435674D01*
X16409301Y-13435674D02*
X16437872Y-13435674D01*
X16437872Y-13435674D02*
X16456920Y-13445198D01*
X16456920Y-13445198D02*
X16466444Y-13454722D01*
X16466444Y-13454722D02*
X16475967Y-13473769D01*
X16475967Y-13473769D02*
X16475967Y-13521388D01*
X16475967Y-13521388D02*
X16466444Y-13540436D01*
X16466444Y-13540436D02*
X16456920Y-13549960D01*
X16456920Y-13549960D02*
X16437872Y-13559484D01*
X16437872Y-13559484D02*
X16380729Y-13559484D01*
X16380729Y-13559484D02*
X16361682Y-13549960D01*
X16361682Y-13549960D02*
X16352158Y-13540436D01*
X16647396Y-13359484D02*
X16609301Y-13359484D01*
X16609301Y-13359484D02*
X16590253Y-13369008D01*
X16590253Y-13369008D02*
X16580729Y-13378531D01*
X16580729Y-13378531D02*
X16561682Y-13407103D01*
X16561682Y-13407103D02*
X16552158Y-13445198D01*
X16552158Y-13445198D02*
X16552158Y-13521388D01*
X16552158Y-13521388D02*
X16561682Y-13540436D01*
X16561682Y-13540436D02*
X16571206Y-13549960D01*
X16571206Y-13549960D02*
X16590253Y-13559484D01*
X16590253Y-13559484D02*
X16628348Y-13559484D01*
X16628348Y-13559484D02*
X16647396Y-13549960D01*
X16647396Y-13549960D02*
X16656920Y-13540436D01*
X16656920Y-13540436D02*
X16666444Y-13521388D01*
X16666444Y-13521388D02*
X16666444Y-13473769D01*
X16666444Y-13473769D02*
X16656920Y-13454722D01*
X16656920Y-13454722D02*
X16647396Y-13445198D01*
X16647396Y-13445198D02*
X16628348Y-13435674D01*
X16628348Y-13435674D02*
X16590253Y-13435674D01*
X16590253Y-13435674D02*
X16571206Y-13445198D01*
X16571206Y-13445198D02*
X16561682Y-13454722D01*
X16561682Y-13454722D02*
X16552158Y-13473769D01*
X16742634Y-13359484D02*
X16742634Y-13397579D01*
X16818825Y-13359484D02*
X16818825Y-13397579D01*
X17114063Y-13635674D02*
X17104539Y-13626150D01*
X17104539Y-13626150D02*
X17085491Y-13597579D01*
X17085491Y-13597579D02*
X17075968Y-13578531D01*
X17075968Y-13578531D02*
X17066444Y-13549960D01*
X17066444Y-13549960D02*
X17056920Y-13502341D01*
X17056920Y-13502341D02*
X17056920Y-13464246D01*
X17056920Y-13464246D02*
X17066444Y-13416627D01*
X17066444Y-13416627D02*
X17075968Y-13388055D01*
X17075968Y-13388055D02*
X17085491Y-13369008D01*
X17085491Y-13369008D02*
X17104539Y-13340436D01*
X17104539Y-13340436D02*
X17114063Y-13330912D01*
X17228349Y-13359484D02*
X17247396Y-13359484D01*
X17247396Y-13359484D02*
X17266444Y-13369008D01*
X17266444Y-13369008D02*
X17275968Y-13378531D01*
X17275968Y-13378531D02*
X17285491Y-13397579D01*
X17285491Y-13397579D02*
X17295015Y-13435674D01*
X17295015Y-13435674D02*
X17295015Y-13483293D01*
X17295015Y-13483293D02*
X17285491Y-13521388D01*
X17285491Y-13521388D02*
X17275968Y-13540436D01*
X17275968Y-13540436D02*
X17266444Y-13549960D01*
X17266444Y-13549960D02*
X17247396Y-13559484D01*
X17247396Y-13559484D02*
X17228349Y-13559484D01*
X17228349Y-13559484D02*
X17209301Y-13549960D01*
X17209301Y-13549960D02*
X17199777Y-13540436D01*
X17199777Y-13540436D02*
X17190253Y-13521388D01*
X17190253Y-13521388D02*
X17180730Y-13483293D01*
X17180730Y-13483293D02*
X17180730Y-13435674D01*
X17180730Y-13435674D02*
X17190253Y-13397579D01*
X17190253Y-13397579D02*
X17199777Y-13378531D01*
X17199777Y-13378531D02*
X17209301Y-13369008D01*
X17209301Y-13369008D02*
X17228349Y-13359484D01*
X17533111Y-13559484D02*
X17533111Y-13359484D01*
X17618825Y-13559484D02*
X17618825Y-13454722D01*
X17618825Y-13454722D02*
X17609301Y-13435674D01*
X17609301Y-13435674D02*
X17590253Y-13426150D01*
X17590253Y-13426150D02*
X17561682Y-13426150D01*
X17561682Y-13426150D02*
X17542634Y-13435674D01*
X17542634Y-13435674D02*
X17533111Y-13445198D01*
X17742634Y-13559484D02*
X17723587Y-13549960D01*
X17723587Y-13549960D02*
X17714063Y-13540436D01*
X17714063Y-13540436D02*
X17704539Y-13521388D01*
X17704539Y-13521388D02*
X17704539Y-13464246D01*
X17704539Y-13464246D02*
X17714063Y-13445198D01*
X17714063Y-13445198D02*
X17723587Y-13435674D01*
X17723587Y-13435674D02*
X17742634Y-13426150D01*
X17742634Y-13426150D02*
X17771206Y-13426150D01*
X17771206Y-13426150D02*
X17790253Y-13435674D01*
X17790253Y-13435674D02*
X17799777Y-13445198D01*
X17799777Y-13445198D02*
X17809301Y-13464246D01*
X17809301Y-13464246D02*
X17809301Y-13521388D01*
X17809301Y-13521388D02*
X17799777Y-13540436D01*
X17799777Y-13540436D02*
X17790253Y-13549960D01*
X17790253Y-13549960D02*
X17771206Y-13559484D01*
X17771206Y-13559484D02*
X17742634Y-13559484D01*
X17923587Y-13559484D02*
X17904539Y-13549960D01*
X17904539Y-13549960D02*
X17895015Y-13530912D01*
X17895015Y-13530912D02*
X17895015Y-13359484D01*
X18075968Y-13549960D02*
X18056920Y-13559484D01*
X18056920Y-13559484D02*
X18018825Y-13559484D01*
X18018825Y-13559484D02*
X17999777Y-13549960D01*
X17999777Y-13549960D02*
X17990253Y-13530912D01*
X17990253Y-13530912D02*
X17990253Y-13454722D01*
X17990253Y-13454722D02*
X17999777Y-13435674D01*
X17999777Y-13435674D02*
X18018825Y-13426150D01*
X18018825Y-13426150D02*
X18056920Y-13426150D01*
X18056920Y-13426150D02*
X18075968Y-13435674D01*
X18075968Y-13435674D02*
X18085492Y-13454722D01*
X18085492Y-13454722D02*
X18085492Y-13473769D01*
X18085492Y-13473769D02*
X17990253Y-13492817D01*
X18161682Y-13549960D02*
X18180730Y-13559484D01*
X18180730Y-13559484D02*
X18218825Y-13559484D01*
X18218825Y-13559484D02*
X18237873Y-13549960D01*
X18237873Y-13549960D02*
X18247396Y-13530912D01*
X18247396Y-13530912D02*
X18247396Y-13521388D01*
X18247396Y-13521388D02*
X18237873Y-13502341D01*
X18237873Y-13502341D02*
X18218825Y-13492817D01*
X18218825Y-13492817D02*
X18190253Y-13492817D01*
X18190253Y-13492817D02*
X18171206Y-13483293D01*
X18171206Y-13483293D02*
X18161682Y-13464246D01*
X18161682Y-13464246D02*
X18161682Y-13454722D01*
X18161682Y-13454722D02*
X18171206Y-13435674D01*
X18171206Y-13435674D02*
X18190253Y-13426150D01*
X18190253Y-13426150D02*
X18218825Y-13426150D01*
X18218825Y-13426150D02*
X18237873Y-13435674D01*
X18485492Y-13483293D02*
X18637873Y-13483293D01*
X18561682Y-13559484D02*
X18561682Y-13407103D01*
X18875968Y-13378531D02*
X18885492Y-13369008D01*
X18885492Y-13369008D02*
X18904539Y-13359484D01*
X18904539Y-13359484D02*
X18952158Y-13359484D01*
X18952158Y-13359484D02*
X18971206Y-13369008D01*
X18971206Y-13369008D02*
X18980730Y-13378531D01*
X18980730Y-13378531D02*
X18990254Y-13397579D01*
X18990254Y-13397579D02*
X18990254Y-13416627D01*
X18990254Y-13416627D02*
X18980730Y-13445198D01*
X18980730Y-13445198D02*
X18866444Y-13559484D01*
X18866444Y-13559484D02*
X18990254Y-13559484D01*
X19218825Y-13549960D02*
X19237873Y-13559484D01*
X19237873Y-13559484D02*
X19275968Y-13559484D01*
X19275968Y-13559484D02*
X19295016Y-13549960D01*
X19295016Y-13549960D02*
X19304539Y-13530912D01*
X19304539Y-13530912D02*
X19304539Y-13521388D01*
X19304539Y-13521388D02*
X19295016Y-13502341D01*
X19295016Y-13502341D02*
X19275968Y-13492817D01*
X19275968Y-13492817D02*
X19247396Y-13492817D01*
X19247396Y-13492817D02*
X19228349Y-13483293D01*
X19228349Y-13483293D02*
X19218825Y-13464246D01*
X19218825Y-13464246D02*
X19218825Y-13454722D01*
X19218825Y-13454722D02*
X19228349Y-13435674D01*
X19228349Y-13435674D02*
X19247396Y-13426150D01*
X19247396Y-13426150D02*
X19275968Y-13426150D01*
X19275968Y-13426150D02*
X19295016Y-13435674D01*
X19418825Y-13559484D02*
X19399777Y-13549960D01*
X19399777Y-13549960D02*
X19390254Y-13530912D01*
X19390254Y-13530912D02*
X19390254Y-13359484D01*
X19523587Y-13559484D02*
X19504539Y-13549960D01*
X19504539Y-13549960D02*
X19495016Y-13540436D01*
X19495016Y-13540436D02*
X19485492Y-13521388D01*
X19485492Y-13521388D02*
X19485492Y-13464246D01*
X19485492Y-13464246D02*
X19495016Y-13445198D01*
X19495016Y-13445198D02*
X19504539Y-13435674D01*
X19504539Y-13435674D02*
X19523587Y-13426150D01*
X19523587Y-13426150D02*
X19552158Y-13426150D01*
X19552158Y-13426150D02*
X19571206Y-13435674D01*
X19571206Y-13435674D02*
X19580730Y-13445198D01*
X19580730Y-13445198D02*
X19590254Y-13464246D01*
X19590254Y-13464246D02*
X19590254Y-13521388D01*
X19590254Y-13521388D02*
X19580730Y-13540436D01*
X19580730Y-13540436D02*
X19571206Y-13549960D01*
X19571206Y-13549960D02*
X19552158Y-13559484D01*
X19552158Y-13559484D02*
X19523587Y-13559484D01*
X19647397Y-13426150D02*
X19723587Y-13426150D01*
X19675968Y-13359484D02*
X19675968Y-13530912D01*
X19675968Y-13530912D02*
X19685492Y-13549960D01*
X19685492Y-13549960D02*
X19704539Y-13559484D01*
X19704539Y-13559484D02*
X19723587Y-13559484D01*
X19780730Y-13549960D02*
X19799777Y-13559484D01*
X19799777Y-13559484D02*
X19837873Y-13559484D01*
X19837873Y-13559484D02*
X19856920Y-13549960D01*
X19856920Y-13549960D02*
X19866444Y-13530912D01*
X19866444Y-13530912D02*
X19866444Y-13521388D01*
X19866444Y-13521388D02*
X19856920Y-13502341D01*
X19856920Y-13502341D02*
X19837873Y-13492817D01*
X19837873Y-13492817D02*
X19809301Y-13492817D01*
X19809301Y-13492817D02*
X19790254Y-13483293D01*
X19790254Y-13483293D02*
X19780730Y-13464246D01*
X19780730Y-13464246D02*
X19780730Y-13454722D01*
X19780730Y-13454722D02*
X19790254Y-13435674D01*
X19790254Y-13435674D02*
X19809301Y-13426150D01*
X19809301Y-13426150D02*
X19837873Y-13426150D01*
X19837873Y-13426150D02*
X19856920Y-13435674D01*
X19933111Y-13635674D02*
X19942635Y-13626150D01*
X19942635Y-13626150D02*
X19961682Y-13597579D01*
X19961682Y-13597579D02*
X19971206Y-13578531D01*
X19971206Y-13578531D02*
X19980730Y-13549960D01*
X19980730Y-13549960D02*
X19990254Y-13502341D01*
X19990254Y-13502341D02*
X19990254Y-13464246D01*
X19990254Y-13464246D02*
X19980730Y-13416627D01*
X19980730Y-13416627D02*
X19971206Y-13388055D01*
X19971206Y-13388055D02*
X19961682Y-13369008D01*
X19961682Y-13369008D02*
X19942635Y-13340436D01*
X19942635Y-13340436D02*
X19933111Y-13330912D01*
D10*
X13499000Y-13692000D02*
X13499000Y-13772000D01*
X13459000Y-13732000D02*
X13539000Y-13732000D01*
D11*
X13837872Y-13623484D02*
X13856920Y-13623484D01*
X13856920Y-13623484D02*
X13875967Y-13633008D01*
X13875967Y-13633008D02*
X13885491Y-13642531D01*
X13885491Y-13642531D02*
X13895015Y-13661579D01*
X13895015Y-13661579D02*
X13904539Y-13699674D01*
X13904539Y-13699674D02*
X13904539Y-13747293D01*
X13904539Y-13747293D02*
X13895015Y-13785388D01*
X13895015Y-13785388D02*
X13885491Y-13804436D01*
X13885491Y-13804436D02*
X13875967Y-13813960D01*
X13875967Y-13813960D02*
X13856920Y-13823484D01*
X13856920Y-13823484D02*
X13837872Y-13823484D01*
X13837872Y-13823484D02*
X13818824Y-13813960D01*
X13818824Y-13813960D02*
X13809301Y-13804436D01*
X13809301Y-13804436D02*
X13799777Y-13785388D01*
X13799777Y-13785388D02*
X13790253Y-13747293D01*
X13790253Y-13747293D02*
X13790253Y-13699674D01*
X13790253Y-13699674D02*
X13799777Y-13661579D01*
X13799777Y-13661579D02*
X13809301Y-13642531D01*
X13809301Y-13642531D02*
X13818824Y-13633008D01*
X13818824Y-13633008D02*
X13837872Y-13623484D01*
X13990253Y-13804436D02*
X13999777Y-13813960D01*
X13999777Y-13813960D02*
X13990253Y-13823484D01*
X13990253Y-13823484D02*
X13980729Y-13813960D01*
X13980729Y-13813960D02*
X13990253Y-13804436D01*
X13990253Y-13804436D02*
X13990253Y-13823484D01*
X14114062Y-13709198D02*
X14095015Y-13699674D01*
X14095015Y-13699674D02*
X14085491Y-13690150D01*
X14085491Y-13690150D02*
X14075967Y-13671103D01*
X14075967Y-13671103D02*
X14075967Y-13661579D01*
X14075967Y-13661579D02*
X14085491Y-13642531D01*
X14085491Y-13642531D02*
X14095015Y-13633008D01*
X14095015Y-13633008D02*
X14114062Y-13623484D01*
X14114062Y-13623484D02*
X14152158Y-13623484D01*
X14152158Y-13623484D02*
X14171205Y-13633008D01*
X14171205Y-13633008D02*
X14180729Y-13642531D01*
X14180729Y-13642531D02*
X14190253Y-13661579D01*
X14190253Y-13661579D02*
X14190253Y-13671103D01*
X14190253Y-13671103D02*
X14180729Y-13690150D01*
X14180729Y-13690150D02*
X14171205Y-13699674D01*
X14171205Y-13699674D02*
X14152158Y-13709198D01*
X14152158Y-13709198D02*
X14114062Y-13709198D01*
X14114062Y-13709198D02*
X14095015Y-13718722D01*
X14095015Y-13718722D02*
X14085491Y-13728246D01*
X14085491Y-13728246D02*
X14075967Y-13747293D01*
X14075967Y-13747293D02*
X14075967Y-13785388D01*
X14075967Y-13785388D02*
X14085491Y-13804436D01*
X14085491Y-13804436D02*
X14095015Y-13813960D01*
X14095015Y-13813960D02*
X14114062Y-13823484D01*
X14114062Y-13823484D02*
X14152158Y-13823484D01*
X14152158Y-13823484D02*
X14171205Y-13813960D01*
X14171205Y-13813960D02*
X14180729Y-13804436D01*
X14180729Y-13804436D02*
X14190253Y-13785388D01*
X14190253Y-13785388D02*
X14190253Y-13747293D01*
X14190253Y-13747293D02*
X14180729Y-13728246D01*
X14180729Y-13728246D02*
X14171205Y-13718722D01*
X14171205Y-13718722D02*
X14152158Y-13709198D01*
X14314062Y-13623484D02*
X14333110Y-13623484D01*
X14333110Y-13623484D02*
X14352158Y-13633008D01*
X14352158Y-13633008D02*
X14361682Y-13642531D01*
X14361682Y-13642531D02*
X14371205Y-13661579D01*
X14371205Y-13661579D02*
X14380729Y-13699674D01*
X14380729Y-13699674D02*
X14380729Y-13747293D01*
X14380729Y-13747293D02*
X14371205Y-13785388D01*
X14371205Y-13785388D02*
X14361682Y-13804436D01*
X14361682Y-13804436D02*
X14352158Y-13813960D01*
X14352158Y-13813960D02*
X14333110Y-13823484D01*
X14333110Y-13823484D02*
X14314062Y-13823484D01*
X14314062Y-13823484D02*
X14295015Y-13813960D01*
X14295015Y-13813960D02*
X14285491Y-13804436D01*
X14285491Y-13804436D02*
X14275967Y-13785388D01*
X14275967Y-13785388D02*
X14266443Y-13747293D01*
X14266443Y-13747293D02*
X14266443Y-13699674D01*
X14266443Y-13699674D02*
X14275967Y-13661579D01*
X14275967Y-13661579D02*
X14285491Y-13642531D01*
X14285491Y-13642531D02*
X14295015Y-13633008D01*
X14295015Y-13633008D02*
X14314062Y-13623484D01*
X14504539Y-13623484D02*
X14523586Y-13623484D01*
X14523586Y-13623484D02*
X14542634Y-13633008D01*
X14542634Y-13633008D02*
X14552158Y-13642531D01*
X14552158Y-13642531D02*
X14561682Y-13661579D01*
X14561682Y-13661579D02*
X14571205Y-13699674D01*
X14571205Y-13699674D02*
X14571205Y-13747293D01*
X14571205Y-13747293D02*
X14561682Y-13785388D01*
X14561682Y-13785388D02*
X14552158Y-13804436D01*
X14552158Y-13804436D02*
X14542634Y-13813960D01*
X14542634Y-13813960D02*
X14523586Y-13823484D01*
X14523586Y-13823484D02*
X14504539Y-13823484D01*
X14504539Y-13823484D02*
X14485491Y-13813960D01*
X14485491Y-13813960D02*
X14475967Y-13804436D01*
X14475967Y-13804436D02*
X14466443Y-13785388D01*
X14466443Y-13785388D02*
X14456920Y-13747293D01*
X14456920Y-13747293D02*
X14456920Y-13699674D01*
X14456920Y-13699674D02*
X14466443Y-13661579D01*
X14466443Y-13661579D02*
X14475967Y-13642531D01*
X14475967Y-13642531D02*
X14485491Y-13633008D01*
X14485491Y-13633008D02*
X14504539Y-13623484D01*
X14656920Y-13823484D02*
X14656920Y-13690150D01*
X14656920Y-13709198D02*
X14666443Y-13699674D01*
X14666443Y-13699674D02*
X14685491Y-13690150D01*
X14685491Y-13690150D02*
X14714063Y-13690150D01*
X14714063Y-13690150D02*
X14733110Y-13699674D01*
X14733110Y-13699674D02*
X14742634Y-13718722D01*
X14742634Y-13718722D02*
X14742634Y-13823484D01*
X14742634Y-13718722D02*
X14752158Y-13699674D01*
X14752158Y-13699674D02*
X14771205Y-13690150D01*
X14771205Y-13690150D02*
X14799777Y-13690150D01*
X14799777Y-13690150D02*
X14818824Y-13699674D01*
X14818824Y-13699674D02*
X14828348Y-13718722D01*
X14828348Y-13718722D02*
X14828348Y-13823484D01*
X14923586Y-13823484D02*
X14923586Y-13690150D01*
X14923586Y-13709198D02*
X14933110Y-13699674D01*
X14933110Y-13699674D02*
X14952158Y-13690150D01*
X14952158Y-13690150D02*
X14980729Y-13690150D01*
X14980729Y-13690150D02*
X14999777Y-13699674D01*
X14999777Y-13699674D02*
X15009301Y-13718722D01*
X15009301Y-13718722D02*
X15009301Y-13823484D01*
X15009301Y-13718722D02*
X15018824Y-13699674D01*
X15018824Y-13699674D02*
X15037872Y-13690150D01*
X15037872Y-13690150D02*
X15066443Y-13690150D01*
X15066443Y-13690150D02*
X15085491Y-13699674D01*
X15085491Y-13699674D02*
X15095015Y-13718722D01*
X15095015Y-13718722D02*
X15095015Y-13823484D01*
X15485491Y-13613960D02*
X15314063Y-13871103D01*
X15742634Y-13623484D02*
X15761682Y-13623484D01*
X15761682Y-13623484D02*
X15780729Y-13633008D01*
X15780729Y-13633008D02*
X15790253Y-13642531D01*
X15790253Y-13642531D02*
X15799777Y-13661579D01*
X15799777Y-13661579D02*
X15809301Y-13699674D01*
X15809301Y-13699674D02*
X15809301Y-13747293D01*
X15809301Y-13747293D02*
X15799777Y-13785388D01*
X15799777Y-13785388D02*
X15790253Y-13804436D01*
X15790253Y-13804436D02*
X15780729Y-13813960D01*
X15780729Y-13813960D02*
X15761682Y-13823484D01*
X15761682Y-13823484D02*
X15742634Y-13823484D01*
X15742634Y-13823484D02*
X15723586Y-13813960D01*
X15723586Y-13813960D02*
X15714063Y-13804436D01*
X15714063Y-13804436D02*
X15704539Y-13785388D01*
X15704539Y-13785388D02*
X15695015Y-13747293D01*
X15695015Y-13747293D02*
X15695015Y-13699674D01*
X15695015Y-13699674D02*
X15704539Y-13661579D01*
X15704539Y-13661579D02*
X15714063Y-13642531D01*
X15714063Y-13642531D02*
X15723586Y-13633008D01*
X15723586Y-13633008D02*
X15742634Y-13623484D01*
X15895015Y-13804436D02*
X15904539Y-13813960D01*
X15904539Y-13813960D02*
X15895015Y-13823484D01*
X15895015Y-13823484D02*
X15885491Y-13813960D01*
X15885491Y-13813960D02*
X15895015Y-13804436D01*
X15895015Y-13804436D02*
X15895015Y-13823484D01*
X16028348Y-13623484D02*
X16047396Y-13623484D01*
X16047396Y-13623484D02*
X16066444Y-13633008D01*
X16066444Y-13633008D02*
X16075967Y-13642531D01*
X16075967Y-13642531D02*
X16085491Y-13661579D01*
X16085491Y-13661579D02*
X16095015Y-13699674D01*
X16095015Y-13699674D02*
X16095015Y-13747293D01*
X16095015Y-13747293D02*
X16085491Y-13785388D01*
X16085491Y-13785388D02*
X16075967Y-13804436D01*
X16075967Y-13804436D02*
X16066444Y-13813960D01*
X16066444Y-13813960D02*
X16047396Y-13823484D01*
X16047396Y-13823484D02*
X16028348Y-13823484D01*
X16028348Y-13823484D02*
X16009301Y-13813960D01*
X16009301Y-13813960D02*
X15999777Y-13804436D01*
X15999777Y-13804436D02*
X15990253Y-13785388D01*
X15990253Y-13785388D02*
X15980729Y-13747293D01*
X15980729Y-13747293D02*
X15980729Y-13699674D01*
X15980729Y-13699674D02*
X15990253Y-13661579D01*
X15990253Y-13661579D02*
X15999777Y-13642531D01*
X15999777Y-13642531D02*
X16009301Y-13633008D01*
X16009301Y-13633008D02*
X16028348Y-13623484D01*
X16161682Y-13623484D02*
X16285491Y-13623484D01*
X16285491Y-13623484D02*
X16218825Y-13699674D01*
X16218825Y-13699674D02*
X16247396Y-13699674D01*
X16247396Y-13699674D02*
X16266444Y-13709198D01*
X16266444Y-13709198D02*
X16275967Y-13718722D01*
X16275967Y-13718722D02*
X16285491Y-13737769D01*
X16285491Y-13737769D02*
X16285491Y-13785388D01*
X16285491Y-13785388D02*
X16275967Y-13804436D01*
X16275967Y-13804436D02*
X16266444Y-13813960D01*
X16266444Y-13813960D02*
X16247396Y-13823484D01*
X16247396Y-13823484D02*
X16190253Y-13823484D01*
X16190253Y-13823484D02*
X16171206Y-13813960D01*
X16171206Y-13813960D02*
X16161682Y-13804436D01*
X16475967Y-13823484D02*
X16361682Y-13823484D01*
X16418825Y-13823484D02*
X16418825Y-13623484D01*
X16418825Y-13623484D02*
X16399777Y-13652055D01*
X16399777Y-13652055D02*
X16380729Y-13671103D01*
X16380729Y-13671103D02*
X16361682Y-13680627D01*
X16656920Y-13623484D02*
X16561682Y-13623484D01*
X16561682Y-13623484D02*
X16552158Y-13718722D01*
X16552158Y-13718722D02*
X16561682Y-13709198D01*
X16561682Y-13709198D02*
X16580729Y-13699674D01*
X16580729Y-13699674D02*
X16628348Y-13699674D01*
X16628348Y-13699674D02*
X16647396Y-13709198D01*
X16647396Y-13709198D02*
X16656920Y-13718722D01*
X16656920Y-13718722D02*
X16666444Y-13737769D01*
X16666444Y-13737769D02*
X16666444Y-13785388D01*
X16666444Y-13785388D02*
X16656920Y-13804436D01*
X16656920Y-13804436D02*
X16647396Y-13813960D01*
X16647396Y-13813960D02*
X16628348Y-13823484D01*
X16628348Y-13823484D02*
X16580729Y-13823484D01*
X16580729Y-13823484D02*
X16561682Y-13813960D01*
X16561682Y-13813960D02*
X16552158Y-13804436D01*
X16742634Y-13623484D02*
X16742634Y-13661579D01*
X16818825Y-13623484D02*
X16818825Y-13661579D01*
X17114063Y-13899674D02*
X17104539Y-13890150D01*
X17104539Y-13890150D02*
X17085491Y-13861579D01*
X17085491Y-13861579D02*
X17075968Y-13842531D01*
X17075968Y-13842531D02*
X17066444Y-13813960D01*
X17066444Y-13813960D02*
X17056920Y-13766341D01*
X17056920Y-13766341D02*
X17056920Y-13728246D01*
X17056920Y-13728246D02*
X17066444Y-13680627D01*
X17066444Y-13680627D02*
X17075968Y-13652055D01*
X17075968Y-13652055D02*
X17085491Y-13633008D01*
X17085491Y-13633008D02*
X17104539Y-13604436D01*
X17104539Y-13604436D02*
X17114063Y-13594912D01*
X17295015Y-13823484D02*
X17180730Y-13823484D01*
X17237872Y-13823484D02*
X17237872Y-13623484D01*
X17237872Y-13623484D02*
X17218825Y-13652055D01*
X17218825Y-13652055D02*
X17199777Y-13671103D01*
X17199777Y-13671103D02*
X17180730Y-13680627D01*
X17418825Y-13623484D02*
X17437872Y-13623484D01*
X17437872Y-13623484D02*
X17456920Y-13633008D01*
X17456920Y-13633008D02*
X17466444Y-13642531D01*
X17466444Y-13642531D02*
X17475968Y-13661579D01*
X17475968Y-13661579D02*
X17485491Y-13699674D01*
X17485491Y-13699674D02*
X17485491Y-13747293D01*
X17485491Y-13747293D02*
X17475968Y-13785388D01*
X17475968Y-13785388D02*
X17466444Y-13804436D01*
X17466444Y-13804436D02*
X17456920Y-13813960D01*
X17456920Y-13813960D02*
X17437872Y-13823484D01*
X17437872Y-13823484D02*
X17418825Y-13823484D01*
X17418825Y-13823484D02*
X17399777Y-13813960D01*
X17399777Y-13813960D02*
X17390253Y-13804436D01*
X17390253Y-13804436D02*
X17380730Y-13785388D01*
X17380730Y-13785388D02*
X17371206Y-13747293D01*
X17371206Y-13747293D02*
X17371206Y-13699674D01*
X17371206Y-13699674D02*
X17380730Y-13661579D01*
X17380730Y-13661579D02*
X17390253Y-13642531D01*
X17390253Y-13642531D02*
X17399777Y-13633008D01*
X17399777Y-13633008D02*
X17418825Y-13623484D01*
X17723587Y-13823484D02*
X17723587Y-13623484D01*
X17809301Y-13823484D02*
X17809301Y-13718722D01*
X17809301Y-13718722D02*
X17799777Y-13699674D01*
X17799777Y-13699674D02*
X17780730Y-13690150D01*
X17780730Y-13690150D02*
X17752158Y-13690150D01*
X17752158Y-13690150D02*
X17733111Y-13699674D01*
X17733111Y-13699674D02*
X17723587Y-13709198D01*
X17933111Y-13823484D02*
X17914063Y-13813960D01*
X17914063Y-13813960D02*
X17904539Y-13804436D01*
X17904539Y-13804436D02*
X17895015Y-13785388D01*
X17895015Y-13785388D02*
X17895015Y-13728246D01*
X17895015Y-13728246D02*
X17904539Y-13709198D01*
X17904539Y-13709198D02*
X17914063Y-13699674D01*
X17914063Y-13699674D02*
X17933111Y-13690150D01*
X17933111Y-13690150D02*
X17961682Y-13690150D01*
X17961682Y-13690150D02*
X17980730Y-13699674D01*
X17980730Y-13699674D02*
X17990253Y-13709198D01*
X17990253Y-13709198D02*
X17999777Y-13728246D01*
X17999777Y-13728246D02*
X17999777Y-13785388D01*
X17999777Y-13785388D02*
X17990253Y-13804436D01*
X17990253Y-13804436D02*
X17980730Y-13813960D01*
X17980730Y-13813960D02*
X17961682Y-13823484D01*
X17961682Y-13823484D02*
X17933111Y-13823484D01*
X18114063Y-13823484D02*
X18095015Y-13813960D01*
X18095015Y-13813960D02*
X18085492Y-13794912D01*
X18085492Y-13794912D02*
X18085492Y-13623484D01*
X18266444Y-13813960D02*
X18247396Y-13823484D01*
X18247396Y-13823484D02*
X18209301Y-13823484D01*
X18209301Y-13823484D02*
X18190253Y-13813960D01*
X18190253Y-13813960D02*
X18180730Y-13794912D01*
X18180730Y-13794912D02*
X18180730Y-13718722D01*
X18180730Y-13718722D02*
X18190253Y-13699674D01*
X18190253Y-13699674D02*
X18209301Y-13690150D01*
X18209301Y-13690150D02*
X18247396Y-13690150D01*
X18247396Y-13690150D02*
X18266444Y-13699674D01*
X18266444Y-13699674D02*
X18275968Y-13718722D01*
X18275968Y-13718722D02*
X18275968Y-13737769D01*
X18275968Y-13737769D02*
X18180730Y-13756817D01*
X18352158Y-13813960D02*
X18371206Y-13823484D01*
X18371206Y-13823484D02*
X18409301Y-13823484D01*
X18409301Y-13823484D02*
X18428349Y-13813960D01*
X18428349Y-13813960D02*
X18437873Y-13794912D01*
X18437873Y-13794912D02*
X18437873Y-13785388D01*
X18437873Y-13785388D02*
X18428349Y-13766341D01*
X18428349Y-13766341D02*
X18409301Y-13756817D01*
X18409301Y-13756817D02*
X18380730Y-13756817D01*
X18380730Y-13756817D02*
X18361682Y-13747293D01*
X18361682Y-13747293D02*
X18352158Y-13728246D01*
X18352158Y-13728246D02*
X18352158Y-13718722D01*
X18352158Y-13718722D02*
X18361682Y-13699674D01*
X18361682Y-13699674D02*
X18380730Y-13690150D01*
X18380730Y-13690150D02*
X18409301Y-13690150D01*
X18409301Y-13690150D02*
X18428349Y-13699674D01*
X18504539Y-13899674D02*
X18514063Y-13890150D01*
X18514063Y-13890150D02*
X18533111Y-13861579D01*
X18533111Y-13861579D02*
X18542634Y-13842531D01*
X18542634Y-13842531D02*
X18552158Y-13813960D01*
X18552158Y-13813960D02*
X18561682Y-13766341D01*
X18561682Y-13766341D02*
X18561682Y-13728246D01*
X18561682Y-13728246D02*
X18552158Y-13680627D01*
X18552158Y-13680627D02*
X18542634Y-13652055D01*
X18542634Y-13652055D02*
X18533111Y-13633008D01*
X18533111Y-13633008D02*
X18514063Y-13604436D01*
X18514063Y-13604436D02*
X18504539Y-13594912D01*
D10*
X13526552Y-14026052D02*
X13526552Y-13965948D01*
X13466448Y-13965948D01*
X13466448Y-14026052D01*
X13526552Y-14026052D01*
D11*
X13837872Y-13887484D02*
X13856920Y-13887484D01*
X13856920Y-13887484D02*
X13875967Y-13897008D01*
X13875967Y-13897008D02*
X13885491Y-13906531D01*
X13885491Y-13906531D02*
X13895015Y-13925579D01*
X13895015Y-13925579D02*
X13904539Y-13963674D01*
X13904539Y-13963674D02*
X13904539Y-14011293D01*
X13904539Y-14011293D02*
X13895015Y-14049388D01*
X13895015Y-14049388D02*
X13885491Y-14068436D01*
X13885491Y-14068436D02*
X13875967Y-14077960D01*
X13875967Y-14077960D02*
X13856920Y-14087484D01*
X13856920Y-14087484D02*
X13837872Y-14087484D01*
X13837872Y-14087484D02*
X13818824Y-14077960D01*
X13818824Y-14077960D02*
X13809301Y-14068436D01*
X13809301Y-14068436D02*
X13799777Y-14049388D01*
X13799777Y-14049388D02*
X13790253Y-14011293D01*
X13790253Y-14011293D02*
X13790253Y-13963674D01*
X13790253Y-13963674D02*
X13799777Y-13925579D01*
X13799777Y-13925579D02*
X13809301Y-13906531D01*
X13809301Y-13906531D02*
X13818824Y-13897008D01*
X13818824Y-13897008D02*
X13837872Y-13887484D01*
X13990253Y-14068436D02*
X13999777Y-14077960D01*
X13999777Y-14077960D02*
X13990253Y-14087484D01*
X13990253Y-14087484D02*
X13980729Y-14077960D01*
X13980729Y-14077960D02*
X13990253Y-14068436D01*
X13990253Y-14068436D02*
X13990253Y-14087484D01*
X14114062Y-13973198D02*
X14095015Y-13963674D01*
X14095015Y-13963674D02*
X14085491Y-13954150D01*
X14085491Y-13954150D02*
X14075967Y-13935103D01*
X14075967Y-13935103D02*
X14075967Y-13925579D01*
X14075967Y-13925579D02*
X14085491Y-13906531D01*
X14085491Y-13906531D02*
X14095015Y-13897008D01*
X14095015Y-13897008D02*
X14114062Y-13887484D01*
X14114062Y-13887484D02*
X14152158Y-13887484D01*
X14152158Y-13887484D02*
X14171205Y-13897008D01*
X14171205Y-13897008D02*
X14180729Y-13906531D01*
X14180729Y-13906531D02*
X14190253Y-13925579D01*
X14190253Y-13925579D02*
X14190253Y-13935103D01*
X14190253Y-13935103D02*
X14180729Y-13954150D01*
X14180729Y-13954150D02*
X14171205Y-13963674D01*
X14171205Y-13963674D02*
X14152158Y-13973198D01*
X14152158Y-13973198D02*
X14114062Y-13973198D01*
X14114062Y-13973198D02*
X14095015Y-13982722D01*
X14095015Y-13982722D02*
X14085491Y-13992246D01*
X14085491Y-13992246D02*
X14075967Y-14011293D01*
X14075967Y-14011293D02*
X14075967Y-14049388D01*
X14075967Y-14049388D02*
X14085491Y-14068436D01*
X14085491Y-14068436D02*
X14095015Y-14077960D01*
X14095015Y-14077960D02*
X14114062Y-14087484D01*
X14114062Y-14087484D02*
X14152158Y-14087484D01*
X14152158Y-14087484D02*
X14171205Y-14077960D01*
X14171205Y-14077960D02*
X14180729Y-14068436D01*
X14180729Y-14068436D02*
X14190253Y-14049388D01*
X14190253Y-14049388D02*
X14190253Y-14011293D01*
X14190253Y-14011293D02*
X14180729Y-13992246D01*
X14180729Y-13992246D02*
X14171205Y-13982722D01*
X14171205Y-13982722D02*
X14152158Y-13973198D01*
X14371205Y-13887484D02*
X14275967Y-13887484D01*
X14275967Y-13887484D02*
X14266443Y-13982722D01*
X14266443Y-13982722D02*
X14275967Y-13973198D01*
X14275967Y-13973198D02*
X14295015Y-13963674D01*
X14295015Y-13963674D02*
X14342634Y-13963674D01*
X14342634Y-13963674D02*
X14361682Y-13973198D01*
X14361682Y-13973198D02*
X14371205Y-13982722D01*
X14371205Y-13982722D02*
X14380729Y-14001769D01*
X14380729Y-14001769D02*
X14380729Y-14049388D01*
X14380729Y-14049388D02*
X14371205Y-14068436D01*
X14371205Y-14068436D02*
X14361682Y-14077960D01*
X14361682Y-14077960D02*
X14342634Y-14087484D01*
X14342634Y-14087484D02*
X14295015Y-14087484D01*
X14295015Y-14087484D02*
X14275967Y-14077960D01*
X14275967Y-14077960D02*
X14266443Y-14068436D01*
X14504539Y-13887484D02*
X14523586Y-13887484D01*
X14523586Y-13887484D02*
X14542634Y-13897008D01*
X14542634Y-13897008D02*
X14552158Y-13906531D01*
X14552158Y-13906531D02*
X14561682Y-13925579D01*
X14561682Y-13925579D02*
X14571205Y-13963674D01*
X14571205Y-13963674D02*
X14571205Y-14011293D01*
X14571205Y-14011293D02*
X14561682Y-14049388D01*
X14561682Y-14049388D02*
X14552158Y-14068436D01*
X14552158Y-14068436D02*
X14542634Y-14077960D01*
X14542634Y-14077960D02*
X14523586Y-14087484D01*
X14523586Y-14087484D02*
X14504539Y-14087484D01*
X14504539Y-14087484D02*
X14485491Y-14077960D01*
X14485491Y-14077960D02*
X14475967Y-14068436D01*
X14475967Y-14068436D02*
X14466443Y-14049388D01*
X14466443Y-14049388D02*
X14456920Y-14011293D01*
X14456920Y-14011293D02*
X14456920Y-13963674D01*
X14456920Y-13963674D02*
X14466443Y-13925579D01*
X14466443Y-13925579D02*
X14475967Y-13906531D01*
X14475967Y-13906531D02*
X14485491Y-13897008D01*
X14485491Y-13897008D02*
X14504539Y-13887484D01*
X14656920Y-14087484D02*
X14656920Y-13954150D01*
X14656920Y-13973198D02*
X14666443Y-13963674D01*
X14666443Y-13963674D02*
X14685491Y-13954150D01*
X14685491Y-13954150D02*
X14714063Y-13954150D01*
X14714063Y-13954150D02*
X14733110Y-13963674D01*
X14733110Y-13963674D02*
X14742634Y-13982722D01*
X14742634Y-13982722D02*
X14742634Y-14087484D01*
X14742634Y-13982722D02*
X14752158Y-13963674D01*
X14752158Y-13963674D02*
X14771205Y-13954150D01*
X14771205Y-13954150D02*
X14799777Y-13954150D01*
X14799777Y-13954150D02*
X14818824Y-13963674D01*
X14818824Y-13963674D02*
X14828348Y-13982722D01*
X14828348Y-13982722D02*
X14828348Y-14087484D01*
X14923586Y-14087484D02*
X14923586Y-13954150D01*
X14923586Y-13973198D02*
X14933110Y-13963674D01*
X14933110Y-13963674D02*
X14952158Y-13954150D01*
X14952158Y-13954150D02*
X14980729Y-13954150D01*
X14980729Y-13954150D02*
X14999777Y-13963674D01*
X14999777Y-13963674D02*
X15009301Y-13982722D01*
X15009301Y-13982722D02*
X15009301Y-14087484D01*
X15009301Y-13982722D02*
X15018824Y-13963674D01*
X15018824Y-13963674D02*
X15037872Y-13954150D01*
X15037872Y-13954150D02*
X15066443Y-13954150D01*
X15066443Y-13954150D02*
X15085491Y-13963674D01*
X15085491Y-13963674D02*
X15095015Y-13982722D01*
X15095015Y-13982722D02*
X15095015Y-14087484D01*
X15485491Y-13877960D02*
X15314063Y-14135103D01*
X15742634Y-13887484D02*
X15761682Y-13887484D01*
X15761682Y-13887484D02*
X15780729Y-13897008D01*
X15780729Y-13897008D02*
X15790253Y-13906531D01*
X15790253Y-13906531D02*
X15799777Y-13925579D01*
X15799777Y-13925579D02*
X15809301Y-13963674D01*
X15809301Y-13963674D02*
X15809301Y-14011293D01*
X15809301Y-14011293D02*
X15799777Y-14049388D01*
X15799777Y-14049388D02*
X15790253Y-14068436D01*
X15790253Y-14068436D02*
X15780729Y-14077960D01*
X15780729Y-14077960D02*
X15761682Y-14087484D01*
X15761682Y-14087484D02*
X15742634Y-14087484D01*
X15742634Y-14087484D02*
X15723586Y-14077960D01*
X15723586Y-14077960D02*
X15714063Y-14068436D01*
X15714063Y-14068436D02*
X15704539Y-14049388D01*
X15704539Y-14049388D02*
X15695015Y-14011293D01*
X15695015Y-14011293D02*
X15695015Y-13963674D01*
X15695015Y-13963674D02*
X15704539Y-13925579D01*
X15704539Y-13925579D02*
X15714063Y-13906531D01*
X15714063Y-13906531D02*
X15723586Y-13897008D01*
X15723586Y-13897008D02*
X15742634Y-13887484D01*
X15895015Y-14068436D02*
X15904539Y-14077960D01*
X15904539Y-14077960D02*
X15895015Y-14087484D01*
X15895015Y-14087484D02*
X15885491Y-14077960D01*
X15885491Y-14077960D02*
X15895015Y-14068436D01*
X15895015Y-14068436D02*
X15895015Y-14087484D01*
X16028348Y-13887484D02*
X16047396Y-13887484D01*
X16047396Y-13887484D02*
X16066444Y-13897008D01*
X16066444Y-13897008D02*
X16075967Y-13906531D01*
X16075967Y-13906531D02*
X16085491Y-13925579D01*
X16085491Y-13925579D02*
X16095015Y-13963674D01*
X16095015Y-13963674D02*
X16095015Y-14011293D01*
X16095015Y-14011293D02*
X16085491Y-14049388D01*
X16085491Y-14049388D02*
X16075967Y-14068436D01*
X16075967Y-14068436D02*
X16066444Y-14077960D01*
X16066444Y-14077960D02*
X16047396Y-14087484D01*
X16047396Y-14087484D02*
X16028348Y-14087484D01*
X16028348Y-14087484D02*
X16009301Y-14077960D01*
X16009301Y-14077960D02*
X15999777Y-14068436D01*
X15999777Y-14068436D02*
X15990253Y-14049388D01*
X15990253Y-14049388D02*
X15980729Y-14011293D01*
X15980729Y-14011293D02*
X15980729Y-13963674D01*
X15980729Y-13963674D02*
X15990253Y-13925579D01*
X15990253Y-13925579D02*
X15999777Y-13906531D01*
X15999777Y-13906531D02*
X16009301Y-13897008D01*
X16009301Y-13897008D02*
X16028348Y-13887484D01*
X16161682Y-13887484D02*
X16285491Y-13887484D01*
X16285491Y-13887484D02*
X16218825Y-13963674D01*
X16218825Y-13963674D02*
X16247396Y-13963674D01*
X16247396Y-13963674D02*
X16266444Y-13973198D01*
X16266444Y-13973198D02*
X16275967Y-13982722D01*
X16275967Y-13982722D02*
X16285491Y-14001769D01*
X16285491Y-14001769D02*
X16285491Y-14049388D01*
X16285491Y-14049388D02*
X16275967Y-14068436D01*
X16275967Y-14068436D02*
X16266444Y-14077960D01*
X16266444Y-14077960D02*
X16247396Y-14087484D01*
X16247396Y-14087484D02*
X16190253Y-14087484D01*
X16190253Y-14087484D02*
X16171206Y-14077960D01*
X16171206Y-14077960D02*
X16161682Y-14068436D01*
X16352158Y-13887484D02*
X16475967Y-13887484D01*
X16475967Y-13887484D02*
X16409301Y-13963674D01*
X16409301Y-13963674D02*
X16437872Y-13963674D01*
X16437872Y-13963674D02*
X16456920Y-13973198D01*
X16456920Y-13973198D02*
X16466444Y-13982722D01*
X16466444Y-13982722D02*
X16475967Y-14001769D01*
X16475967Y-14001769D02*
X16475967Y-14049388D01*
X16475967Y-14049388D02*
X16466444Y-14068436D01*
X16466444Y-14068436D02*
X16456920Y-14077960D01*
X16456920Y-14077960D02*
X16437872Y-14087484D01*
X16437872Y-14087484D02*
X16380729Y-14087484D01*
X16380729Y-14087484D02*
X16361682Y-14077960D01*
X16361682Y-14077960D02*
X16352158Y-14068436D01*
X16656920Y-13887484D02*
X16561682Y-13887484D01*
X16561682Y-13887484D02*
X16552158Y-13982722D01*
X16552158Y-13982722D02*
X16561682Y-13973198D01*
X16561682Y-13973198D02*
X16580729Y-13963674D01*
X16580729Y-13963674D02*
X16628348Y-13963674D01*
X16628348Y-13963674D02*
X16647396Y-13973198D01*
X16647396Y-13973198D02*
X16656920Y-13982722D01*
X16656920Y-13982722D02*
X16666444Y-14001769D01*
X16666444Y-14001769D02*
X16666444Y-14049388D01*
X16666444Y-14049388D02*
X16656920Y-14068436D01*
X16656920Y-14068436D02*
X16647396Y-14077960D01*
X16647396Y-14077960D02*
X16628348Y-14087484D01*
X16628348Y-14087484D02*
X16580729Y-14087484D01*
X16580729Y-14087484D02*
X16561682Y-14077960D01*
X16561682Y-14077960D02*
X16552158Y-14068436D01*
X16742634Y-13887484D02*
X16742634Y-13925579D01*
X16818825Y-13887484D02*
X16818825Y-13925579D01*
X17114063Y-14163674D02*
X17104539Y-14154150D01*
X17104539Y-14154150D02*
X17085491Y-14125579D01*
X17085491Y-14125579D02*
X17075968Y-14106531D01*
X17075968Y-14106531D02*
X17066444Y-14077960D01*
X17066444Y-14077960D02*
X17056920Y-14030341D01*
X17056920Y-14030341D02*
X17056920Y-13992246D01*
X17056920Y-13992246D02*
X17066444Y-13944627D01*
X17066444Y-13944627D02*
X17075968Y-13916055D01*
X17075968Y-13916055D02*
X17085491Y-13897008D01*
X17085491Y-13897008D02*
X17104539Y-13868436D01*
X17104539Y-13868436D02*
X17114063Y-13858912D01*
X17180730Y-13906531D02*
X17190253Y-13897008D01*
X17190253Y-13897008D02*
X17209301Y-13887484D01*
X17209301Y-13887484D02*
X17256920Y-13887484D01*
X17256920Y-13887484D02*
X17275968Y-13897008D01*
X17275968Y-13897008D02*
X17285491Y-13906531D01*
X17285491Y-13906531D02*
X17295015Y-13925579D01*
X17295015Y-13925579D02*
X17295015Y-13944627D01*
X17295015Y-13944627D02*
X17285491Y-13973198D01*
X17285491Y-13973198D02*
X17171206Y-14087484D01*
X17171206Y-14087484D02*
X17295015Y-14087484D01*
X17533111Y-14087484D02*
X17533111Y-13887484D01*
X17618825Y-14087484D02*
X17618825Y-13982722D01*
X17618825Y-13982722D02*
X17609301Y-13963674D01*
X17609301Y-13963674D02*
X17590253Y-13954150D01*
X17590253Y-13954150D02*
X17561682Y-13954150D01*
X17561682Y-13954150D02*
X17542634Y-13963674D01*
X17542634Y-13963674D02*
X17533111Y-13973198D01*
X17742634Y-14087484D02*
X17723587Y-14077960D01*
X17723587Y-14077960D02*
X17714063Y-14068436D01*
X17714063Y-14068436D02*
X17704539Y-14049388D01*
X17704539Y-14049388D02*
X17704539Y-13992246D01*
X17704539Y-13992246D02*
X17714063Y-13973198D01*
X17714063Y-13973198D02*
X17723587Y-13963674D01*
X17723587Y-13963674D02*
X17742634Y-13954150D01*
X17742634Y-13954150D02*
X17771206Y-13954150D01*
X17771206Y-13954150D02*
X17790253Y-13963674D01*
X17790253Y-13963674D02*
X17799777Y-13973198D01*
X17799777Y-13973198D02*
X17809301Y-13992246D01*
X17809301Y-13992246D02*
X17809301Y-14049388D01*
X17809301Y-14049388D02*
X17799777Y-14068436D01*
X17799777Y-14068436D02*
X17790253Y-14077960D01*
X17790253Y-14077960D02*
X17771206Y-14087484D01*
X17771206Y-14087484D02*
X17742634Y-14087484D01*
X17923587Y-14087484D02*
X17904539Y-14077960D01*
X17904539Y-14077960D02*
X17895015Y-14058912D01*
X17895015Y-14058912D02*
X17895015Y-13887484D01*
X18075968Y-14077960D02*
X18056920Y-14087484D01*
X18056920Y-14087484D02*
X18018825Y-14087484D01*
X18018825Y-14087484D02*
X17999777Y-14077960D01*
X17999777Y-14077960D02*
X17990253Y-14058912D01*
X17990253Y-14058912D02*
X17990253Y-13982722D01*
X17990253Y-13982722D02*
X17999777Y-13963674D01*
X17999777Y-13963674D02*
X18018825Y-13954150D01*
X18018825Y-13954150D02*
X18056920Y-13954150D01*
X18056920Y-13954150D02*
X18075968Y-13963674D01*
X18075968Y-13963674D02*
X18085492Y-13982722D01*
X18085492Y-13982722D02*
X18085492Y-14001769D01*
X18085492Y-14001769D02*
X17990253Y-14020817D01*
X18161682Y-14077960D02*
X18180730Y-14087484D01*
X18180730Y-14087484D02*
X18218825Y-14087484D01*
X18218825Y-14087484D02*
X18237873Y-14077960D01*
X18237873Y-14077960D02*
X18247396Y-14058912D01*
X18247396Y-14058912D02*
X18247396Y-14049388D01*
X18247396Y-14049388D02*
X18237873Y-14030341D01*
X18237873Y-14030341D02*
X18218825Y-14020817D01*
X18218825Y-14020817D02*
X18190253Y-14020817D01*
X18190253Y-14020817D02*
X18171206Y-14011293D01*
X18171206Y-14011293D02*
X18161682Y-13992246D01*
X18161682Y-13992246D02*
X18161682Y-13982722D01*
X18161682Y-13982722D02*
X18171206Y-13963674D01*
X18171206Y-13963674D02*
X18190253Y-13954150D01*
X18190253Y-13954150D02*
X18218825Y-13954150D01*
X18218825Y-13954150D02*
X18237873Y-13963674D01*
X18314063Y-14163674D02*
X18323587Y-14154150D01*
X18323587Y-14154150D02*
X18342634Y-14125579D01*
X18342634Y-14125579D02*
X18352158Y-14106531D01*
X18352158Y-14106531D02*
X18361682Y-14077960D01*
X18361682Y-14077960D02*
X18371206Y-14030341D01*
X18371206Y-14030341D02*
X18371206Y-13992246D01*
X18371206Y-13992246D02*
X18361682Y-13944627D01*
X18361682Y-13944627D02*
X18352158Y-13916055D01*
X18352158Y-13916055D02*
X18342634Y-13897008D01*
X18342634Y-13897008D02*
X18323587Y-13868436D01*
X18323587Y-13868436D02*
X18314063Y-13858912D01*
D10*
X13494000Y-14305000D02*
X13539000Y-14260000D01*
X13494000Y-14215000D01*
X13449000Y-14260000D01*
X13494000Y-14305000D01*
D11*
X13837872Y-14151484D02*
X13856920Y-14151484D01*
X13856920Y-14151484D02*
X13875967Y-14161008D01*
X13875967Y-14161008D02*
X13885491Y-14170531D01*
X13885491Y-14170531D02*
X13895015Y-14189579D01*
X13895015Y-14189579D02*
X13904539Y-14227674D01*
X13904539Y-14227674D02*
X13904539Y-14275293D01*
X13904539Y-14275293D02*
X13895015Y-14313388D01*
X13895015Y-14313388D02*
X13885491Y-14332436D01*
X13885491Y-14332436D02*
X13875967Y-14341960D01*
X13875967Y-14341960D02*
X13856920Y-14351484D01*
X13856920Y-14351484D02*
X13837872Y-14351484D01*
X13837872Y-14351484D02*
X13818824Y-14341960D01*
X13818824Y-14341960D02*
X13809301Y-14332436D01*
X13809301Y-14332436D02*
X13799777Y-14313388D01*
X13799777Y-14313388D02*
X13790253Y-14275293D01*
X13790253Y-14275293D02*
X13790253Y-14227674D01*
X13790253Y-14227674D02*
X13799777Y-14189579D01*
X13799777Y-14189579D02*
X13809301Y-14170531D01*
X13809301Y-14170531D02*
X13818824Y-14161008D01*
X13818824Y-14161008D02*
X13837872Y-14151484D01*
X13990253Y-14332436D02*
X13999777Y-14341960D01*
X13999777Y-14341960D02*
X13990253Y-14351484D01*
X13990253Y-14351484D02*
X13980729Y-14341960D01*
X13980729Y-14341960D02*
X13990253Y-14332436D01*
X13990253Y-14332436D02*
X13990253Y-14351484D01*
X14095015Y-14351484D02*
X14133110Y-14351484D01*
X14133110Y-14351484D02*
X14152158Y-14341960D01*
X14152158Y-14341960D02*
X14161682Y-14332436D01*
X14161682Y-14332436D02*
X14180729Y-14303865D01*
X14180729Y-14303865D02*
X14190253Y-14265769D01*
X14190253Y-14265769D02*
X14190253Y-14189579D01*
X14190253Y-14189579D02*
X14180729Y-14170531D01*
X14180729Y-14170531D02*
X14171205Y-14161008D01*
X14171205Y-14161008D02*
X14152158Y-14151484D01*
X14152158Y-14151484D02*
X14114062Y-14151484D01*
X14114062Y-14151484D02*
X14095015Y-14161008D01*
X14095015Y-14161008D02*
X14085491Y-14170531D01*
X14085491Y-14170531D02*
X14075967Y-14189579D01*
X14075967Y-14189579D02*
X14075967Y-14237198D01*
X14075967Y-14237198D02*
X14085491Y-14256246D01*
X14085491Y-14256246D02*
X14095015Y-14265769D01*
X14095015Y-14265769D02*
X14114062Y-14275293D01*
X14114062Y-14275293D02*
X14152158Y-14275293D01*
X14152158Y-14275293D02*
X14171205Y-14265769D01*
X14171205Y-14265769D02*
X14180729Y-14256246D01*
X14180729Y-14256246D02*
X14190253Y-14237198D01*
X14314062Y-14151484D02*
X14333110Y-14151484D01*
X14333110Y-14151484D02*
X14352158Y-14161008D01*
X14352158Y-14161008D02*
X14361682Y-14170531D01*
X14361682Y-14170531D02*
X14371205Y-14189579D01*
X14371205Y-14189579D02*
X14380729Y-14227674D01*
X14380729Y-14227674D02*
X14380729Y-14275293D01*
X14380729Y-14275293D02*
X14371205Y-14313388D01*
X14371205Y-14313388D02*
X14361682Y-14332436D01*
X14361682Y-14332436D02*
X14352158Y-14341960D01*
X14352158Y-14341960D02*
X14333110Y-14351484D01*
X14333110Y-14351484D02*
X14314062Y-14351484D01*
X14314062Y-14351484D02*
X14295015Y-14341960D01*
X14295015Y-14341960D02*
X14285491Y-14332436D01*
X14285491Y-14332436D02*
X14275967Y-14313388D01*
X14275967Y-14313388D02*
X14266443Y-14275293D01*
X14266443Y-14275293D02*
X14266443Y-14227674D01*
X14266443Y-14227674D02*
X14275967Y-14189579D01*
X14275967Y-14189579D02*
X14285491Y-14170531D01*
X14285491Y-14170531D02*
X14295015Y-14161008D01*
X14295015Y-14161008D02*
X14314062Y-14151484D01*
X14504539Y-14151484D02*
X14523586Y-14151484D01*
X14523586Y-14151484D02*
X14542634Y-14161008D01*
X14542634Y-14161008D02*
X14552158Y-14170531D01*
X14552158Y-14170531D02*
X14561682Y-14189579D01*
X14561682Y-14189579D02*
X14571205Y-14227674D01*
X14571205Y-14227674D02*
X14571205Y-14275293D01*
X14571205Y-14275293D02*
X14561682Y-14313388D01*
X14561682Y-14313388D02*
X14552158Y-14332436D01*
X14552158Y-14332436D02*
X14542634Y-14341960D01*
X14542634Y-14341960D02*
X14523586Y-14351484D01*
X14523586Y-14351484D02*
X14504539Y-14351484D01*
X14504539Y-14351484D02*
X14485491Y-14341960D01*
X14485491Y-14341960D02*
X14475967Y-14332436D01*
X14475967Y-14332436D02*
X14466443Y-14313388D01*
X14466443Y-14313388D02*
X14456920Y-14275293D01*
X14456920Y-14275293D02*
X14456920Y-14227674D01*
X14456920Y-14227674D02*
X14466443Y-14189579D01*
X14466443Y-14189579D02*
X14475967Y-14170531D01*
X14475967Y-14170531D02*
X14485491Y-14161008D01*
X14485491Y-14161008D02*
X14504539Y-14151484D01*
X14656920Y-14351484D02*
X14656920Y-14218150D01*
X14656920Y-14237198D02*
X14666443Y-14227674D01*
X14666443Y-14227674D02*
X14685491Y-14218150D01*
X14685491Y-14218150D02*
X14714063Y-14218150D01*
X14714063Y-14218150D02*
X14733110Y-14227674D01*
X14733110Y-14227674D02*
X14742634Y-14246722D01*
X14742634Y-14246722D02*
X14742634Y-14351484D01*
X14742634Y-14246722D02*
X14752158Y-14227674D01*
X14752158Y-14227674D02*
X14771205Y-14218150D01*
X14771205Y-14218150D02*
X14799777Y-14218150D01*
X14799777Y-14218150D02*
X14818824Y-14227674D01*
X14818824Y-14227674D02*
X14828348Y-14246722D01*
X14828348Y-14246722D02*
X14828348Y-14351484D01*
X14923586Y-14351484D02*
X14923586Y-14218150D01*
X14923586Y-14237198D02*
X14933110Y-14227674D01*
X14933110Y-14227674D02*
X14952158Y-14218150D01*
X14952158Y-14218150D02*
X14980729Y-14218150D01*
X14980729Y-14218150D02*
X14999777Y-14227674D01*
X14999777Y-14227674D02*
X15009301Y-14246722D01*
X15009301Y-14246722D02*
X15009301Y-14351484D01*
X15009301Y-14246722D02*
X15018824Y-14227674D01*
X15018824Y-14227674D02*
X15037872Y-14218150D01*
X15037872Y-14218150D02*
X15066443Y-14218150D01*
X15066443Y-14218150D02*
X15085491Y-14227674D01*
X15085491Y-14227674D02*
X15095015Y-14246722D01*
X15095015Y-14246722D02*
X15095015Y-14351484D01*
X15485491Y-14141960D02*
X15314063Y-14399103D01*
X15742634Y-14151484D02*
X15761682Y-14151484D01*
X15761682Y-14151484D02*
X15780729Y-14161008D01*
X15780729Y-14161008D02*
X15790253Y-14170531D01*
X15790253Y-14170531D02*
X15799777Y-14189579D01*
X15799777Y-14189579D02*
X15809301Y-14227674D01*
X15809301Y-14227674D02*
X15809301Y-14275293D01*
X15809301Y-14275293D02*
X15799777Y-14313388D01*
X15799777Y-14313388D02*
X15790253Y-14332436D01*
X15790253Y-14332436D02*
X15780729Y-14341960D01*
X15780729Y-14341960D02*
X15761682Y-14351484D01*
X15761682Y-14351484D02*
X15742634Y-14351484D01*
X15742634Y-14351484D02*
X15723586Y-14341960D01*
X15723586Y-14341960D02*
X15714063Y-14332436D01*
X15714063Y-14332436D02*
X15704539Y-14313388D01*
X15704539Y-14313388D02*
X15695015Y-14275293D01*
X15695015Y-14275293D02*
X15695015Y-14227674D01*
X15695015Y-14227674D02*
X15704539Y-14189579D01*
X15704539Y-14189579D02*
X15714063Y-14170531D01*
X15714063Y-14170531D02*
X15723586Y-14161008D01*
X15723586Y-14161008D02*
X15742634Y-14151484D01*
X15895015Y-14332436D02*
X15904539Y-14341960D01*
X15904539Y-14341960D02*
X15895015Y-14351484D01*
X15895015Y-14351484D02*
X15885491Y-14341960D01*
X15885491Y-14341960D02*
X15895015Y-14332436D01*
X15895015Y-14332436D02*
X15895015Y-14351484D01*
X16028348Y-14151484D02*
X16047396Y-14151484D01*
X16047396Y-14151484D02*
X16066444Y-14161008D01*
X16066444Y-14161008D02*
X16075967Y-14170531D01*
X16075967Y-14170531D02*
X16085491Y-14189579D01*
X16085491Y-14189579D02*
X16095015Y-14227674D01*
X16095015Y-14227674D02*
X16095015Y-14275293D01*
X16095015Y-14275293D02*
X16085491Y-14313388D01*
X16085491Y-14313388D02*
X16075967Y-14332436D01*
X16075967Y-14332436D02*
X16066444Y-14341960D01*
X16066444Y-14341960D02*
X16047396Y-14351484D01*
X16047396Y-14351484D02*
X16028348Y-14351484D01*
X16028348Y-14351484D02*
X16009301Y-14341960D01*
X16009301Y-14341960D02*
X15999777Y-14332436D01*
X15999777Y-14332436D02*
X15990253Y-14313388D01*
X15990253Y-14313388D02*
X15980729Y-14275293D01*
X15980729Y-14275293D02*
X15980729Y-14227674D01*
X15980729Y-14227674D02*
X15990253Y-14189579D01*
X15990253Y-14189579D02*
X15999777Y-14170531D01*
X15999777Y-14170531D02*
X16009301Y-14161008D01*
X16009301Y-14161008D02*
X16028348Y-14151484D01*
X16161682Y-14151484D02*
X16285491Y-14151484D01*
X16285491Y-14151484D02*
X16218825Y-14227674D01*
X16218825Y-14227674D02*
X16247396Y-14227674D01*
X16247396Y-14227674D02*
X16266444Y-14237198D01*
X16266444Y-14237198D02*
X16275967Y-14246722D01*
X16275967Y-14246722D02*
X16285491Y-14265769D01*
X16285491Y-14265769D02*
X16285491Y-14313388D01*
X16285491Y-14313388D02*
X16275967Y-14332436D01*
X16275967Y-14332436D02*
X16266444Y-14341960D01*
X16266444Y-14341960D02*
X16247396Y-14351484D01*
X16247396Y-14351484D02*
X16190253Y-14351484D01*
X16190253Y-14351484D02*
X16171206Y-14341960D01*
X16171206Y-14341960D02*
X16161682Y-14332436D01*
X16466444Y-14151484D02*
X16371206Y-14151484D01*
X16371206Y-14151484D02*
X16361682Y-14246722D01*
X16361682Y-14246722D02*
X16371206Y-14237198D01*
X16371206Y-14237198D02*
X16390253Y-14227674D01*
X16390253Y-14227674D02*
X16437872Y-14227674D01*
X16437872Y-14227674D02*
X16456920Y-14237198D01*
X16456920Y-14237198D02*
X16466444Y-14246722D01*
X16466444Y-14246722D02*
X16475967Y-14265769D01*
X16475967Y-14265769D02*
X16475967Y-14313388D01*
X16475967Y-14313388D02*
X16466444Y-14332436D01*
X16466444Y-14332436D02*
X16456920Y-14341960D01*
X16456920Y-14341960D02*
X16437872Y-14351484D01*
X16437872Y-14351484D02*
X16390253Y-14351484D01*
X16390253Y-14351484D02*
X16371206Y-14341960D01*
X16371206Y-14341960D02*
X16361682Y-14332436D01*
X16647396Y-14218150D02*
X16647396Y-14351484D01*
X16599777Y-14141960D02*
X16552158Y-14284817D01*
X16552158Y-14284817D02*
X16675967Y-14284817D01*
X16742634Y-14151484D02*
X16742634Y-14189579D01*
X16818825Y-14151484D02*
X16818825Y-14189579D01*
X17114063Y-14427674D02*
X17104539Y-14418150D01*
X17104539Y-14418150D02*
X17085491Y-14389579D01*
X17085491Y-14389579D02*
X17075968Y-14370531D01*
X17075968Y-14370531D02*
X17066444Y-14341960D01*
X17066444Y-14341960D02*
X17056920Y-14294341D01*
X17056920Y-14294341D02*
X17056920Y-14256246D01*
X17056920Y-14256246D02*
X17066444Y-14208627D01*
X17066444Y-14208627D02*
X17075968Y-14180055D01*
X17075968Y-14180055D02*
X17085491Y-14161008D01*
X17085491Y-14161008D02*
X17104539Y-14132436D01*
X17104539Y-14132436D02*
X17114063Y-14122912D01*
X17275968Y-14218150D02*
X17275968Y-14351484D01*
X17228349Y-14141960D02*
X17180730Y-14284817D01*
X17180730Y-14284817D02*
X17304539Y-14284817D01*
X17533111Y-14351484D02*
X17533111Y-14151484D01*
X17618825Y-14351484D02*
X17618825Y-14246722D01*
X17618825Y-14246722D02*
X17609301Y-14227674D01*
X17609301Y-14227674D02*
X17590253Y-14218150D01*
X17590253Y-14218150D02*
X17561682Y-14218150D01*
X17561682Y-14218150D02*
X17542634Y-14227674D01*
X17542634Y-14227674D02*
X17533111Y-14237198D01*
X17742634Y-14351484D02*
X17723587Y-14341960D01*
X17723587Y-14341960D02*
X17714063Y-14332436D01*
X17714063Y-14332436D02*
X17704539Y-14313388D01*
X17704539Y-14313388D02*
X17704539Y-14256246D01*
X17704539Y-14256246D02*
X17714063Y-14237198D01*
X17714063Y-14237198D02*
X17723587Y-14227674D01*
X17723587Y-14227674D02*
X17742634Y-14218150D01*
X17742634Y-14218150D02*
X17771206Y-14218150D01*
X17771206Y-14218150D02*
X17790253Y-14227674D01*
X17790253Y-14227674D02*
X17799777Y-14237198D01*
X17799777Y-14237198D02*
X17809301Y-14256246D01*
X17809301Y-14256246D02*
X17809301Y-14313388D01*
X17809301Y-14313388D02*
X17799777Y-14332436D01*
X17799777Y-14332436D02*
X17790253Y-14341960D01*
X17790253Y-14341960D02*
X17771206Y-14351484D01*
X17771206Y-14351484D02*
X17742634Y-14351484D01*
X17923587Y-14351484D02*
X17904539Y-14341960D01*
X17904539Y-14341960D02*
X17895015Y-14322912D01*
X17895015Y-14322912D02*
X17895015Y-14151484D01*
X18075968Y-14341960D02*
X18056920Y-14351484D01*
X18056920Y-14351484D02*
X18018825Y-14351484D01*
X18018825Y-14351484D02*
X17999777Y-14341960D01*
X17999777Y-14341960D02*
X17990253Y-14322912D01*
X17990253Y-14322912D02*
X17990253Y-14246722D01*
X17990253Y-14246722D02*
X17999777Y-14227674D01*
X17999777Y-14227674D02*
X18018825Y-14218150D01*
X18018825Y-14218150D02*
X18056920Y-14218150D01*
X18056920Y-14218150D02*
X18075968Y-14227674D01*
X18075968Y-14227674D02*
X18085492Y-14246722D01*
X18085492Y-14246722D02*
X18085492Y-14265769D01*
X18085492Y-14265769D02*
X17990253Y-14284817D01*
X18161682Y-14341960D02*
X18180730Y-14351484D01*
X18180730Y-14351484D02*
X18218825Y-14351484D01*
X18218825Y-14351484D02*
X18237873Y-14341960D01*
X18237873Y-14341960D02*
X18247396Y-14322912D01*
X18247396Y-14322912D02*
X18247396Y-14313388D01*
X18247396Y-14313388D02*
X18237873Y-14294341D01*
X18237873Y-14294341D02*
X18218825Y-14284817D01*
X18218825Y-14284817D02*
X18190253Y-14284817D01*
X18190253Y-14284817D02*
X18171206Y-14275293D01*
X18171206Y-14275293D02*
X18161682Y-14256246D01*
X18161682Y-14256246D02*
X18161682Y-14246722D01*
X18161682Y-14246722D02*
X18171206Y-14227674D01*
X18171206Y-14227674D02*
X18190253Y-14218150D01*
X18190253Y-14218150D02*
X18218825Y-14218150D01*
X18218825Y-14218150D02*
X18237873Y-14227674D01*
X18314063Y-14427674D02*
X18323587Y-14418150D01*
X18323587Y-14418150D02*
X18342634Y-14389579D01*
X18342634Y-14389579D02*
X18352158Y-14370531D01*
X18352158Y-14370531D02*
X18361682Y-14341960D01*
X18361682Y-14341960D02*
X18371206Y-14294341D01*
X18371206Y-14294341D02*
X18371206Y-14256246D01*
X18371206Y-14256246D02*
X18361682Y-14208627D01*
X18361682Y-14208627D02*
X18352158Y-14180055D01*
X18352158Y-14180055D02*
X18342634Y-14161008D01*
X18342634Y-14161008D02*
X18323587Y-14132436D01*
X18323587Y-14132436D02*
X18314063Y-14122912D01*
D10*
X13439000Y-14474000D02*
X13539000Y-14574000D01*
X13539000Y-14474000D02*
X13439000Y-14574000D01*
X13539000Y-14524000D02*
G75*
G02*
X13439000Y-14524000I-50000J0D01*
G01*
X13439000Y-14524000D02*
G75*
G02*
X13539000Y-14524000I50000J0D01*
G01*
D11*
X13904539Y-14615484D02*
X13790253Y-14615484D01*
X13847396Y-14615484D02*
X13847396Y-14415484D01*
X13847396Y-14415484D02*
X13828348Y-14444055D01*
X13828348Y-14444055D02*
X13809301Y-14463103D01*
X13809301Y-14463103D02*
X13790253Y-14472627D01*
X13990253Y-14596436D02*
X13999777Y-14605960D01*
X13999777Y-14605960D02*
X13990253Y-14615484D01*
X13990253Y-14615484D02*
X13980729Y-14605960D01*
X13980729Y-14605960D02*
X13990253Y-14596436D01*
X13990253Y-14596436D02*
X13990253Y-14615484D01*
X14123586Y-14415484D02*
X14142634Y-14415484D01*
X14142634Y-14415484D02*
X14161682Y-14425008D01*
X14161682Y-14425008D02*
X14171205Y-14434531D01*
X14171205Y-14434531D02*
X14180729Y-14453579D01*
X14180729Y-14453579D02*
X14190253Y-14491674D01*
X14190253Y-14491674D02*
X14190253Y-14539293D01*
X14190253Y-14539293D02*
X14180729Y-14577388D01*
X14180729Y-14577388D02*
X14171205Y-14596436D01*
X14171205Y-14596436D02*
X14161682Y-14605960D01*
X14161682Y-14605960D02*
X14142634Y-14615484D01*
X14142634Y-14615484D02*
X14123586Y-14615484D01*
X14123586Y-14615484D02*
X14104539Y-14605960D01*
X14104539Y-14605960D02*
X14095015Y-14596436D01*
X14095015Y-14596436D02*
X14085491Y-14577388D01*
X14085491Y-14577388D02*
X14075967Y-14539293D01*
X14075967Y-14539293D02*
X14075967Y-14491674D01*
X14075967Y-14491674D02*
X14085491Y-14453579D01*
X14085491Y-14453579D02*
X14095015Y-14434531D01*
X14095015Y-14434531D02*
X14104539Y-14425008D01*
X14104539Y-14425008D02*
X14123586Y-14415484D01*
X14314062Y-14415484D02*
X14333110Y-14415484D01*
X14333110Y-14415484D02*
X14352158Y-14425008D01*
X14352158Y-14425008D02*
X14361682Y-14434531D01*
X14361682Y-14434531D02*
X14371205Y-14453579D01*
X14371205Y-14453579D02*
X14380729Y-14491674D01*
X14380729Y-14491674D02*
X14380729Y-14539293D01*
X14380729Y-14539293D02*
X14371205Y-14577388D01*
X14371205Y-14577388D02*
X14361682Y-14596436D01*
X14361682Y-14596436D02*
X14352158Y-14605960D01*
X14352158Y-14605960D02*
X14333110Y-14615484D01*
X14333110Y-14615484D02*
X14314062Y-14615484D01*
X14314062Y-14615484D02*
X14295015Y-14605960D01*
X14295015Y-14605960D02*
X14285491Y-14596436D01*
X14285491Y-14596436D02*
X14275967Y-14577388D01*
X14275967Y-14577388D02*
X14266443Y-14539293D01*
X14266443Y-14539293D02*
X14266443Y-14491674D01*
X14266443Y-14491674D02*
X14275967Y-14453579D01*
X14275967Y-14453579D02*
X14285491Y-14434531D01*
X14285491Y-14434531D02*
X14295015Y-14425008D01*
X14295015Y-14425008D02*
X14314062Y-14415484D01*
X14504539Y-14415484D02*
X14523586Y-14415484D01*
X14523586Y-14415484D02*
X14542634Y-14425008D01*
X14542634Y-14425008D02*
X14552158Y-14434531D01*
X14552158Y-14434531D02*
X14561682Y-14453579D01*
X14561682Y-14453579D02*
X14571205Y-14491674D01*
X14571205Y-14491674D02*
X14571205Y-14539293D01*
X14571205Y-14539293D02*
X14561682Y-14577388D01*
X14561682Y-14577388D02*
X14552158Y-14596436D01*
X14552158Y-14596436D02*
X14542634Y-14605960D01*
X14542634Y-14605960D02*
X14523586Y-14615484D01*
X14523586Y-14615484D02*
X14504539Y-14615484D01*
X14504539Y-14615484D02*
X14485491Y-14605960D01*
X14485491Y-14605960D02*
X14475967Y-14596436D01*
X14475967Y-14596436D02*
X14466443Y-14577388D01*
X14466443Y-14577388D02*
X14456920Y-14539293D01*
X14456920Y-14539293D02*
X14456920Y-14491674D01*
X14456920Y-14491674D02*
X14466443Y-14453579D01*
X14466443Y-14453579D02*
X14475967Y-14434531D01*
X14475967Y-14434531D02*
X14485491Y-14425008D01*
X14485491Y-14425008D02*
X14504539Y-14415484D01*
X14656920Y-14615484D02*
X14656920Y-14482150D01*
X14656920Y-14501198D02*
X14666443Y-14491674D01*
X14666443Y-14491674D02*
X14685491Y-14482150D01*
X14685491Y-14482150D02*
X14714063Y-14482150D01*
X14714063Y-14482150D02*
X14733110Y-14491674D01*
X14733110Y-14491674D02*
X14742634Y-14510722D01*
X14742634Y-14510722D02*
X14742634Y-14615484D01*
X14742634Y-14510722D02*
X14752158Y-14491674D01*
X14752158Y-14491674D02*
X14771205Y-14482150D01*
X14771205Y-14482150D02*
X14799777Y-14482150D01*
X14799777Y-14482150D02*
X14818824Y-14491674D01*
X14818824Y-14491674D02*
X14828348Y-14510722D01*
X14828348Y-14510722D02*
X14828348Y-14615484D01*
X14923586Y-14615484D02*
X14923586Y-14482150D01*
X14923586Y-14501198D02*
X14933110Y-14491674D01*
X14933110Y-14491674D02*
X14952158Y-14482150D01*
X14952158Y-14482150D02*
X14980729Y-14482150D01*
X14980729Y-14482150D02*
X14999777Y-14491674D01*
X14999777Y-14491674D02*
X15009301Y-14510722D01*
X15009301Y-14510722D02*
X15009301Y-14615484D01*
X15009301Y-14510722D02*
X15018824Y-14491674D01*
X15018824Y-14491674D02*
X15037872Y-14482150D01*
X15037872Y-14482150D02*
X15066443Y-14482150D01*
X15066443Y-14482150D02*
X15085491Y-14491674D01*
X15085491Y-14491674D02*
X15095015Y-14510722D01*
X15095015Y-14510722D02*
X15095015Y-14615484D01*
X15485491Y-14405960D02*
X15314063Y-14663103D01*
X15742634Y-14415484D02*
X15761682Y-14415484D01*
X15761682Y-14415484D02*
X15780729Y-14425008D01*
X15780729Y-14425008D02*
X15790253Y-14434531D01*
X15790253Y-14434531D02*
X15799777Y-14453579D01*
X15799777Y-14453579D02*
X15809301Y-14491674D01*
X15809301Y-14491674D02*
X15809301Y-14539293D01*
X15809301Y-14539293D02*
X15799777Y-14577388D01*
X15799777Y-14577388D02*
X15790253Y-14596436D01*
X15790253Y-14596436D02*
X15780729Y-14605960D01*
X15780729Y-14605960D02*
X15761682Y-14615484D01*
X15761682Y-14615484D02*
X15742634Y-14615484D01*
X15742634Y-14615484D02*
X15723586Y-14605960D01*
X15723586Y-14605960D02*
X15714063Y-14596436D01*
X15714063Y-14596436D02*
X15704539Y-14577388D01*
X15704539Y-14577388D02*
X15695015Y-14539293D01*
X15695015Y-14539293D02*
X15695015Y-14491674D01*
X15695015Y-14491674D02*
X15704539Y-14453579D01*
X15704539Y-14453579D02*
X15714063Y-14434531D01*
X15714063Y-14434531D02*
X15723586Y-14425008D01*
X15723586Y-14425008D02*
X15742634Y-14415484D01*
X15895015Y-14596436D02*
X15904539Y-14605960D01*
X15904539Y-14605960D02*
X15895015Y-14615484D01*
X15895015Y-14615484D02*
X15885491Y-14605960D01*
X15885491Y-14605960D02*
X15895015Y-14596436D01*
X15895015Y-14596436D02*
X15895015Y-14615484D01*
X16028348Y-14415484D02*
X16047396Y-14415484D01*
X16047396Y-14415484D02*
X16066444Y-14425008D01*
X16066444Y-14425008D02*
X16075967Y-14434531D01*
X16075967Y-14434531D02*
X16085491Y-14453579D01*
X16085491Y-14453579D02*
X16095015Y-14491674D01*
X16095015Y-14491674D02*
X16095015Y-14539293D01*
X16095015Y-14539293D02*
X16085491Y-14577388D01*
X16085491Y-14577388D02*
X16075967Y-14596436D01*
X16075967Y-14596436D02*
X16066444Y-14605960D01*
X16066444Y-14605960D02*
X16047396Y-14615484D01*
X16047396Y-14615484D02*
X16028348Y-14615484D01*
X16028348Y-14615484D02*
X16009301Y-14605960D01*
X16009301Y-14605960D02*
X15999777Y-14596436D01*
X15999777Y-14596436D02*
X15990253Y-14577388D01*
X15990253Y-14577388D02*
X15980729Y-14539293D01*
X15980729Y-14539293D02*
X15980729Y-14491674D01*
X15980729Y-14491674D02*
X15990253Y-14453579D01*
X15990253Y-14453579D02*
X15999777Y-14434531D01*
X15999777Y-14434531D02*
X16009301Y-14425008D01*
X16009301Y-14425008D02*
X16028348Y-14415484D01*
X16161682Y-14415484D02*
X16285491Y-14415484D01*
X16285491Y-14415484D02*
X16218825Y-14491674D01*
X16218825Y-14491674D02*
X16247396Y-14491674D01*
X16247396Y-14491674D02*
X16266444Y-14501198D01*
X16266444Y-14501198D02*
X16275967Y-14510722D01*
X16275967Y-14510722D02*
X16285491Y-14529769D01*
X16285491Y-14529769D02*
X16285491Y-14577388D01*
X16285491Y-14577388D02*
X16275967Y-14596436D01*
X16275967Y-14596436D02*
X16266444Y-14605960D01*
X16266444Y-14605960D02*
X16247396Y-14615484D01*
X16247396Y-14615484D02*
X16190253Y-14615484D01*
X16190253Y-14615484D02*
X16171206Y-14605960D01*
X16171206Y-14605960D02*
X16161682Y-14596436D01*
X16380729Y-14615484D02*
X16418825Y-14615484D01*
X16418825Y-14615484D02*
X16437872Y-14605960D01*
X16437872Y-14605960D02*
X16447396Y-14596436D01*
X16447396Y-14596436D02*
X16466444Y-14567865D01*
X16466444Y-14567865D02*
X16475967Y-14529769D01*
X16475967Y-14529769D02*
X16475967Y-14453579D01*
X16475967Y-14453579D02*
X16466444Y-14434531D01*
X16466444Y-14434531D02*
X16456920Y-14425008D01*
X16456920Y-14425008D02*
X16437872Y-14415484D01*
X16437872Y-14415484D02*
X16399777Y-14415484D01*
X16399777Y-14415484D02*
X16380729Y-14425008D01*
X16380729Y-14425008D02*
X16371206Y-14434531D01*
X16371206Y-14434531D02*
X16361682Y-14453579D01*
X16361682Y-14453579D02*
X16361682Y-14501198D01*
X16361682Y-14501198D02*
X16371206Y-14520246D01*
X16371206Y-14520246D02*
X16380729Y-14529769D01*
X16380729Y-14529769D02*
X16399777Y-14539293D01*
X16399777Y-14539293D02*
X16437872Y-14539293D01*
X16437872Y-14539293D02*
X16456920Y-14529769D01*
X16456920Y-14529769D02*
X16466444Y-14520246D01*
X16466444Y-14520246D02*
X16475967Y-14501198D01*
X16647396Y-14482150D02*
X16647396Y-14615484D01*
X16599777Y-14405960D02*
X16552158Y-14548817D01*
X16552158Y-14548817D02*
X16675967Y-14548817D01*
X16742634Y-14415484D02*
X16742634Y-14453579D01*
X16818825Y-14415484D02*
X16818825Y-14453579D01*
X17114063Y-14691674D02*
X17104539Y-14682150D01*
X17104539Y-14682150D02*
X17085491Y-14653579D01*
X17085491Y-14653579D02*
X17075968Y-14634531D01*
X17075968Y-14634531D02*
X17066444Y-14605960D01*
X17066444Y-14605960D02*
X17056920Y-14558341D01*
X17056920Y-14558341D02*
X17056920Y-14520246D01*
X17056920Y-14520246D02*
X17066444Y-14472627D01*
X17066444Y-14472627D02*
X17075968Y-14444055D01*
X17075968Y-14444055D02*
X17085491Y-14425008D01*
X17085491Y-14425008D02*
X17104539Y-14396436D01*
X17104539Y-14396436D02*
X17114063Y-14386912D01*
X17180730Y-14434531D02*
X17190253Y-14425008D01*
X17190253Y-14425008D02*
X17209301Y-14415484D01*
X17209301Y-14415484D02*
X17256920Y-14415484D01*
X17256920Y-14415484D02*
X17275968Y-14425008D01*
X17275968Y-14425008D02*
X17285491Y-14434531D01*
X17285491Y-14434531D02*
X17295015Y-14453579D01*
X17295015Y-14453579D02*
X17295015Y-14472627D01*
X17295015Y-14472627D02*
X17285491Y-14501198D01*
X17285491Y-14501198D02*
X17171206Y-14615484D01*
X17171206Y-14615484D02*
X17295015Y-14615484D01*
X17533111Y-14615484D02*
X17533111Y-14415484D01*
X17618825Y-14615484D02*
X17618825Y-14510722D01*
X17618825Y-14510722D02*
X17609301Y-14491674D01*
X17609301Y-14491674D02*
X17590253Y-14482150D01*
X17590253Y-14482150D02*
X17561682Y-14482150D01*
X17561682Y-14482150D02*
X17542634Y-14491674D01*
X17542634Y-14491674D02*
X17533111Y-14501198D01*
X17742634Y-14615484D02*
X17723587Y-14605960D01*
X17723587Y-14605960D02*
X17714063Y-14596436D01*
X17714063Y-14596436D02*
X17704539Y-14577388D01*
X17704539Y-14577388D02*
X17704539Y-14520246D01*
X17704539Y-14520246D02*
X17714063Y-14501198D01*
X17714063Y-14501198D02*
X17723587Y-14491674D01*
X17723587Y-14491674D02*
X17742634Y-14482150D01*
X17742634Y-14482150D02*
X17771206Y-14482150D01*
X17771206Y-14482150D02*
X17790253Y-14491674D01*
X17790253Y-14491674D02*
X17799777Y-14501198D01*
X17799777Y-14501198D02*
X17809301Y-14520246D01*
X17809301Y-14520246D02*
X17809301Y-14577388D01*
X17809301Y-14577388D02*
X17799777Y-14596436D01*
X17799777Y-14596436D02*
X17790253Y-14605960D01*
X17790253Y-14605960D02*
X17771206Y-14615484D01*
X17771206Y-14615484D02*
X17742634Y-14615484D01*
X17923587Y-14615484D02*
X17904539Y-14605960D01*
X17904539Y-14605960D02*
X17895015Y-14586912D01*
X17895015Y-14586912D02*
X17895015Y-14415484D01*
X18075968Y-14605960D02*
X18056920Y-14615484D01*
X18056920Y-14615484D02*
X18018825Y-14615484D01*
X18018825Y-14615484D02*
X17999777Y-14605960D01*
X17999777Y-14605960D02*
X17990253Y-14586912D01*
X17990253Y-14586912D02*
X17990253Y-14510722D01*
X17990253Y-14510722D02*
X17999777Y-14491674D01*
X17999777Y-14491674D02*
X18018825Y-14482150D01*
X18018825Y-14482150D02*
X18056920Y-14482150D01*
X18056920Y-14482150D02*
X18075968Y-14491674D01*
X18075968Y-14491674D02*
X18085492Y-14510722D01*
X18085492Y-14510722D02*
X18085492Y-14529769D01*
X18085492Y-14529769D02*
X17990253Y-14548817D01*
X18161682Y-14605960D02*
X18180730Y-14615484D01*
X18180730Y-14615484D02*
X18218825Y-14615484D01*
X18218825Y-14615484D02*
X18237873Y-14605960D01*
X18237873Y-14605960D02*
X18247396Y-14586912D01*
X18247396Y-14586912D02*
X18247396Y-14577388D01*
X18247396Y-14577388D02*
X18237873Y-14558341D01*
X18237873Y-14558341D02*
X18218825Y-14548817D01*
X18218825Y-14548817D02*
X18190253Y-14548817D01*
X18190253Y-14548817D02*
X18171206Y-14539293D01*
X18171206Y-14539293D02*
X18161682Y-14520246D01*
X18161682Y-14520246D02*
X18161682Y-14510722D01*
X18161682Y-14510722D02*
X18171206Y-14491674D01*
X18171206Y-14491674D02*
X18190253Y-14482150D01*
X18190253Y-14482150D02*
X18218825Y-14482150D01*
X18218825Y-14482150D02*
X18237873Y-14491674D01*
X18314063Y-14691674D02*
X18323587Y-14682150D01*
X18323587Y-14682150D02*
X18342634Y-14653579D01*
X18342634Y-14653579D02*
X18352158Y-14634531D01*
X18352158Y-14634531D02*
X18361682Y-14605960D01*
X18361682Y-14605960D02*
X18371206Y-14558341D01*
X18371206Y-14558341D02*
X18371206Y-14520246D01*
X18371206Y-14520246D02*
X18361682Y-14472627D01*
X18361682Y-14472627D02*
X18352158Y-14444055D01*
X18352158Y-14444055D02*
X18342634Y-14425008D01*
X18342634Y-14425008D02*
X18323587Y-14396436D01*
X18323587Y-14396436D02*
X18314063Y-14386912D01*
D12*
X13429000Y-14733000D02*
X13539000Y-14843000D01*
X13539000Y-14733000D02*
X13429000Y-14843000D01*
X13484000Y-14733000D02*
X13484000Y-14843000D01*
X13429000Y-14788000D02*
X13539000Y-14788000D01*
D11*
X13904539Y-14879484D02*
X13790253Y-14879484D01*
X13847396Y-14879484D02*
X13847396Y-14679484D01*
X13847396Y-14679484D02*
X13828348Y-14708055D01*
X13828348Y-14708055D02*
X13809301Y-14727103D01*
X13809301Y-14727103D02*
X13790253Y-14736627D01*
X13990253Y-14860436D02*
X13999777Y-14869960D01*
X13999777Y-14869960D02*
X13990253Y-14879484D01*
X13990253Y-14879484D02*
X13980729Y-14869960D01*
X13980729Y-14869960D02*
X13990253Y-14860436D01*
X13990253Y-14860436D02*
X13990253Y-14879484D01*
X14190253Y-14879484D02*
X14075967Y-14879484D01*
X14133110Y-14879484D02*
X14133110Y-14679484D01*
X14133110Y-14679484D02*
X14114062Y-14708055D01*
X14114062Y-14708055D02*
X14095015Y-14727103D01*
X14095015Y-14727103D02*
X14075967Y-14736627D01*
X14314062Y-14679484D02*
X14333110Y-14679484D01*
X14333110Y-14679484D02*
X14352158Y-14689008D01*
X14352158Y-14689008D02*
X14361682Y-14698531D01*
X14361682Y-14698531D02*
X14371205Y-14717579D01*
X14371205Y-14717579D02*
X14380729Y-14755674D01*
X14380729Y-14755674D02*
X14380729Y-14803293D01*
X14380729Y-14803293D02*
X14371205Y-14841388D01*
X14371205Y-14841388D02*
X14361682Y-14860436D01*
X14361682Y-14860436D02*
X14352158Y-14869960D01*
X14352158Y-14869960D02*
X14333110Y-14879484D01*
X14333110Y-14879484D02*
X14314062Y-14879484D01*
X14314062Y-14879484D02*
X14295015Y-14869960D01*
X14295015Y-14869960D02*
X14285491Y-14860436D01*
X14285491Y-14860436D02*
X14275967Y-14841388D01*
X14275967Y-14841388D02*
X14266443Y-14803293D01*
X14266443Y-14803293D02*
X14266443Y-14755674D01*
X14266443Y-14755674D02*
X14275967Y-14717579D01*
X14275967Y-14717579D02*
X14285491Y-14698531D01*
X14285491Y-14698531D02*
X14295015Y-14689008D01*
X14295015Y-14689008D02*
X14314062Y-14679484D01*
X14504539Y-14679484D02*
X14523586Y-14679484D01*
X14523586Y-14679484D02*
X14542634Y-14689008D01*
X14542634Y-14689008D02*
X14552158Y-14698531D01*
X14552158Y-14698531D02*
X14561682Y-14717579D01*
X14561682Y-14717579D02*
X14571205Y-14755674D01*
X14571205Y-14755674D02*
X14571205Y-14803293D01*
X14571205Y-14803293D02*
X14561682Y-14841388D01*
X14561682Y-14841388D02*
X14552158Y-14860436D01*
X14552158Y-14860436D02*
X14542634Y-14869960D01*
X14542634Y-14869960D02*
X14523586Y-14879484D01*
X14523586Y-14879484D02*
X14504539Y-14879484D01*
X14504539Y-14879484D02*
X14485491Y-14869960D01*
X14485491Y-14869960D02*
X14475967Y-14860436D01*
X14475967Y-14860436D02*
X14466443Y-14841388D01*
X14466443Y-14841388D02*
X14456920Y-14803293D01*
X14456920Y-14803293D02*
X14456920Y-14755674D01*
X14456920Y-14755674D02*
X14466443Y-14717579D01*
X14466443Y-14717579D02*
X14475967Y-14698531D01*
X14475967Y-14698531D02*
X14485491Y-14689008D01*
X14485491Y-14689008D02*
X14504539Y-14679484D01*
X14656920Y-14879484D02*
X14656920Y-14746150D01*
X14656920Y-14765198D02*
X14666443Y-14755674D01*
X14666443Y-14755674D02*
X14685491Y-14746150D01*
X14685491Y-14746150D02*
X14714063Y-14746150D01*
X14714063Y-14746150D02*
X14733110Y-14755674D01*
X14733110Y-14755674D02*
X14742634Y-14774722D01*
X14742634Y-14774722D02*
X14742634Y-14879484D01*
X14742634Y-14774722D02*
X14752158Y-14755674D01*
X14752158Y-14755674D02*
X14771205Y-14746150D01*
X14771205Y-14746150D02*
X14799777Y-14746150D01*
X14799777Y-14746150D02*
X14818824Y-14755674D01*
X14818824Y-14755674D02*
X14828348Y-14774722D01*
X14828348Y-14774722D02*
X14828348Y-14879484D01*
X14923586Y-14879484D02*
X14923586Y-14746150D01*
X14923586Y-14765198D02*
X14933110Y-14755674D01*
X14933110Y-14755674D02*
X14952158Y-14746150D01*
X14952158Y-14746150D02*
X14980729Y-14746150D01*
X14980729Y-14746150D02*
X14999777Y-14755674D01*
X14999777Y-14755674D02*
X15009301Y-14774722D01*
X15009301Y-14774722D02*
X15009301Y-14879484D01*
X15009301Y-14774722D02*
X15018824Y-14755674D01*
X15018824Y-14755674D02*
X15037872Y-14746150D01*
X15037872Y-14746150D02*
X15066443Y-14746150D01*
X15066443Y-14746150D02*
X15085491Y-14755674D01*
X15085491Y-14755674D02*
X15095015Y-14774722D01*
X15095015Y-14774722D02*
X15095015Y-14879484D01*
X15485491Y-14669960D02*
X15314063Y-14927103D01*
X15742634Y-14679484D02*
X15761682Y-14679484D01*
X15761682Y-14679484D02*
X15780729Y-14689008D01*
X15780729Y-14689008D02*
X15790253Y-14698531D01*
X15790253Y-14698531D02*
X15799777Y-14717579D01*
X15799777Y-14717579D02*
X15809301Y-14755674D01*
X15809301Y-14755674D02*
X15809301Y-14803293D01*
X15809301Y-14803293D02*
X15799777Y-14841388D01*
X15799777Y-14841388D02*
X15790253Y-14860436D01*
X15790253Y-14860436D02*
X15780729Y-14869960D01*
X15780729Y-14869960D02*
X15761682Y-14879484D01*
X15761682Y-14879484D02*
X15742634Y-14879484D01*
X15742634Y-14879484D02*
X15723586Y-14869960D01*
X15723586Y-14869960D02*
X15714063Y-14860436D01*
X15714063Y-14860436D02*
X15704539Y-14841388D01*
X15704539Y-14841388D02*
X15695015Y-14803293D01*
X15695015Y-14803293D02*
X15695015Y-14755674D01*
X15695015Y-14755674D02*
X15704539Y-14717579D01*
X15704539Y-14717579D02*
X15714063Y-14698531D01*
X15714063Y-14698531D02*
X15723586Y-14689008D01*
X15723586Y-14689008D02*
X15742634Y-14679484D01*
X15895015Y-14860436D02*
X15904539Y-14869960D01*
X15904539Y-14869960D02*
X15895015Y-14879484D01*
X15895015Y-14879484D02*
X15885491Y-14869960D01*
X15885491Y-14869960D02*
X15895015Y-14860436D01*
X15895015Y-14860436D02*
X15895015Y-14879484D01*
X16028348Y-14679484D02*
X16047396Y-14679484D01*
X16047396Y-14679484D02*
X16066444Y-14689008D01*
X16066444Y-14689008D02*
X16075967Y-14698531D01*
X16075967Y-14698531D02*
X16085491Y-14717579D01*
X16085491Y-14717579D02*
X16095015Y-14755674D01*
X16095015Y-14755674D02*
X16095015Y-14803293D01*
X16095015Y-14803293D02*
X16085491Y-14841388D01*
X16085491Y-14841388D02*
X16075967Y-14860436D01*
X16075967Y-14860436D02*
X16066444Y-14869960D01*
X16066444Y-14869960D02*
X16047396Y-14879484D01*
X16047396Y-14879484D02*
X16028348Y-14879484D01*
X16028348Y-14879484D02*
X16009301Y-14869960D01*
X16009301Y-14869960D02*
X15999777Y-14860436D01*
X15999777Y-14860436D02*
X15990253Y-14841388D01*
X15990253Y-14841388D02*
X15980729Y-14803293D01*
X15980729Y-14803293D02*
X15980729Y-14755674D01*
X15980729Y-14755674D02*
X15990253Y-14717579D01*
X15990253Y-14717579D02*
X15999777Y-14698531D01*
X15999777Y-14698531D02*
X16009301Y-14689008D01*
X16009301Y-14689008D02*
X16028348Y-14679484D01*
X16266444Y-14746150D02*
X16266444Y-14879484D01*
X16218825Y-14669960D02*
X16171206Y-14812817D01*
X16171206Y-14812817D02*
X16295015Y-14812817D01*
X16352158Y-14679484D02*
X16475967Y-14679484D01*
X16475967Y-14679484D02*
X16409301Y-14755674D01*
X16409301Y-14755674D02*
X16437872Y-14755674D01*
X16437872Y-14755674D02*
X16456920Y-14765198D01*
X16456920Y-14765198D02*
X16466444Y-14774722D01*
X16466444Y-14774722D02*
X16475967Y-14793769D01*
X16475967Y-14793769D02*
X16475967Y-14841388D01*
X16475967Y-14841388D02*
X16466444Y-14860436D01*
X16466444Y-14860436D02*
X16456920Y-14869960D01*
X16456920Y-14869960D02*
X16437872Y-14879484D01*
X16437872Y-14879484D02*
X16380729Y-14879484D01*
X16380729Y-14879484D02*
X16361682Y-14869960D01*
X16361682Y-14869960D02*
X16352158Y-14860436D01*
X16542634Y-14679484D02*
X16666444Y-14679484D01*
X16666444Y-14679484D02*
X16599777Y-14755674D01*
X16599777Y-14755674D02*
X16628348Y-14755674D01*
X16628348Y-14755674D02*
X16647396Y-14765198D01*
X16647396Y-14765198D02*
X16656920Y-14774722D01*
X16656920Y-14774722D02*
X16666444Y-14793769D01*
X16666444Y-14793769D02*
X16666444Y-14841388D01*
X16666444Y-14841388D02*
X16656920Y-14860436D01*
X16656920Y-14860436D02*
X16647396Y-14869960D01*
X16647396Y-14869960D02*
X16628348Y-14879484D01*
X16628348Y-14879484D02*
X16571206Y-14879484D01*
X16571206Y-14879484D02*
X16552158Y-14869960D01*
X16552158Y-14869960D02*
X16542634Y-14860436D01*
X16742634Y-14679484D02*
X16742634Y-14717579D01*
X16818825Y-14679484D02*
X16818825Y-14717579D01*
X17114063Y-14955674D02*
X17104539Y-14946150D01*
X17104539Y-14946150D02*
X17085491Y-14917579D01*
X17085491Y-14917579D02*
X17075968Y-14898531D01*
X17075968Y-14898531D02*
X17066444Y-14869960D01*
X17066444Y-14869960D02*
X17056920Y-14822341D01*
X17056920Y-14822341D02*
X17056920Y-14784246D01*
X17056920Y-14784246D02*
X17066444Y-14736627D01*
X17066444Y-14736627D02*
X17075968Y-14708055D01*
X17075968Y-14708055D02*
X17085491Y-14689008D01*
X17085491Y-14689008D02*
X17104539Y-14660436D01*
X17104539Y-14660436D02*
X17114063Y-14650912D01*
X17275968Y-14746150D02*
X17275968Y-14879484D01*
X17228349Y-14669960D02*
X17180730Y-14812817D01*
X17180730Y-14812817D02*
X17304539Y-14812817D01*
X17533111Y-14879484D02*
X17533111Y-14679484D01*
X17618825Y-14879484D02*
X17618825Y-14774722D01*
X17618825Y-14774722D02*
X17609301Y-14755674D01*
X17609301Y-14755674D02*
X17590253Y-14746150D01*
X17590253Y-14746150D02*
X17561682Y-14746150D01*
X17561682Y-14746150D02*
X17542634Y-14755674D01*
X17542634Y-14755674D02*
X17533111Y-14765198D01*
X17742634Y-14879484D02*
X17723587Y-14869960D01*
X17723587Y-14869960D02*
X17714063Y-14860436D01*
X17714063Y-14860436D02*
X17704539Y-14841388D01*
X17704539Y-14841388D02*
X17704539Y-14784246D01*
X17704539Y-14784246D02*
X17714063Y-14765198D01*
X17714063Y-14765198D02*
X17723587Y-14755674D01*
X17723587Y-14755674D02*
X17742634Y-14746150D01*
X17742634Y-14746150D02*
X17771206Y-14746150D01*
X17771206Y-14746150D02*
X17790253Y-14755674D01*
X17790253Y-14755674D02*
X17799777Y-14765198D01*
X17799777Y-14765198D02*
X17809301Y-14784246D01*
X17809301Y-14784246D02*
X17809301Y-14841388D01*
X17809301Y-14841388D02*
X17799777Y-14860436D01*
X17799777Y-14860436D02*
X17790253Y-14869960D01*
X17790253Y-14869960D02*
X17771206Y-14879484D01*
X17771206Y-14879484D02*
X17742634Y-14879484D01*
X17923587Y-14879484D02*
X17904539Y-14869960D01*
X17904539Y-14869960D02*
X17895015Y-14850912D01*
X17895015Y-14850912D02*
X17895015Y-14679484D01*
X18075968Y-14869960D02*
X18056920Y-14879484D01*
X18056920Y-14879484D02*
X18018825Y-14879484D01*
X18018825Y-14879484D02*
X17999777Y-14869960D01*
X17999777Y-14869960D02*
X17990253Y-14850912D01*
X17990253Y-14850912D02*
X17990253Y-14774722D01*
X17990253Y-14774722D02*
X17999777Y-14755674D01*
X17999777Y-14755674D02*
X18018825Y-14746150D01*
X18018825Y-14746150D02*
X18056920Y-14746150D01*
X18056920Y-14746150D02*
X18075968Y-14755674D01*
X18075968Y-14755674D02*
X18085492Y-14774722D01*
X18085492Y-14774722D02*
X18085492Y-14793769D01*
X18085492Y-14793769D02*
X17990253Y-14812817D01*
X18161682Y-14869960D02*
X18180730Y-14879484D01*
X18180730Y-14879484D02*
X18218825Y-14879484D01*
X18218825Y-14879484D02*
X18237873Y-14869960D01*
X18237873Y-14869960D02*
X18247396Y-14850912D01*
X18247396Y-14850912D02*
X18247396Y-14841388D01*
X18247396Y-14841388D02*
X18237873Y-14822341D01*
X18237873Y-14822341D02*
X18218825Y-14812817D01*
X18218825Y-14812817D02*
X18190253Y-14812817D01*
X18190253Y-14812817D02*
X18171206Y-14803293D01*
X18171206Y-14803293D02*
X18161682Y-14784246D01*
X18161682Y-14784246D02*
X18161682Y-14774722D01*
X18161682Y-14774722D02*
X18171206Y-14755674D01*
X18171206Y-14755674D02*
X18190253Y-14746150D01*
X18190253Y-14746150D02*
X18218825Y-14746150D01*
X18218825Y-14746150D02*
X18237873Y-14755674D01*
X18314063Y-14955674D02*
X18323587Y-14946150D01*
X18323587Y-14946150D02*
X18342634Y-14917579D01*
X18342634Y-14917579D02*
X18352158Y-14898531D01*
X18352158Y-14898531D02*
X18361682Y-14869960D01*
X18361682Y-14869960D02*
X18371206Y-14822341D01*
X18371206Y-14822341D02*
X18371206Y-14784246D01*
X18371206Y-14784246D02*
X18361682Y-14736627D01*
X18361682Y-14736627D02*
X18352158Y-14708055D01*
X18352158Y-14708055D02*
X18342634Y-14689008D01*
X18342634Y-14689008D02*
X18323587Y-14660436D01*
X18323587Y-14660436D02*
X18314063Y-14650912D01*
M02*
